<svg xmlns="http://www.w3.org/2000/svg" width="800" height="800" viewBox="0 0 24 24" fill="none" xmlns:v="https://vecta.io/nano"><path fill-rule="evenodd" d="M3.172 5.172C2 6.343 2 8.229 2 12s0 5.657 1.172 6.828S6.229 20 10 20h4c3.771 0 5.657 0 6.828-1.172S22 15.771 22 12s0-5.657-1.172-6.828S17.771 4 14 4h-4C6.229 4 4.343 4 3.172 5.172zM18.576 7.52a.75.75 0 0 1-.096 1.056l-2.196 1.83-2.239 1.745c-.661.425-1.304.693-2.045.693s-1.384-.268-2.045-.693c-.634-.408-1.352-1.006-2.239-1.745L5.52 8.576a.75.75 0 0 1 .96-1.152l2.159 1.799 2.128 1.667c.529.341.888.455 1.233.455s.704-.114 1.233-.455c.547-.352 1.195-.89 2.128-1.667l2.159-1.799a.75.75 0 0 1 1.056.096z" fill="currentColor"/></svg>