<svg xmlns="http://www.w3.org/2000/svg" viewBox="0 0 800 800" fill="currentColor" fill-rule="evenodd" xmlns:v="https://vecta.io/nano"><path d="M731.3 262.6c-1.6-35.5-7.3-59.7-15.5-80.9-8.4-22.2-21.5-42.4-38.4-59-16.7-16.9-36.8-30.1-59-38.4-21.2-8.2-45.5-13.9-81-15.5s-46.8-2-137.4-2c-90.5 0-101.9.4-137.4 2s-59.7 7.3-80.9 15.5c-22.2 8.4-42.4 21.5-59 38.4-16.9 16.7-30.1 36.8-38.4 59-8.2 21.2-13.9 45.5-15.5 81s-2 46.8-2 137.4l2 137.4c1.6 35.5 7.3 59.7 15.5 80.9 8.4 22.2 21.5 42.4 38.4 59 16.7 16.9 36.8 30.1 59 38.4 21.2 8.2 45.5 13.9 80.9 15.5 35.5 1.6 46.9 2 137.4 2s101.9-.4 137.4-2 59.7-7.3 80.9-15.5c22.2-8.4 42.4-21.5 59-38.4 16.9-16.7 30.1-36.8 38.4-59 8.2-21.2 13.9-45.5 15.5-80.9 1.6-35.5 2-46.9 2-137.4l-1.9-137.5zM521.2 521.2A171.44 171.44 0 0 1 400 571.4 171.19 171.19 0 0 1 228.6 400 171.19 171.19 0 0 1 400 228.6 171.19 171.19 0 0 1 571.4 400c0 45.5-18.1 89-50.2 121.2zm88.1-267c-7.6 7.6-17.9 11.9-28.6 11.9s-21-4.3-28.6-11.9-11.9-17.9-11.9-28.6c0-10.8 4.3-21 11.9-28.6s17.9-11.9 28.6-11.9 21 4.3 28.6 11.9 11.9 17.9 11.9 28.6-4.3 21-11.9 28.6zM511.2 400c0 29.5-11.7 57.8-32.6 78.7-20.9 20.8-49.2 32.6-78.7 32.6-14.6 0-29.1-2.9-42.6-8.5s-25.8-13.8-36.1-24.1-18.5-22.6-24.1-36.1-8.5-28-8.5-42.6 2.9-29.1 8.5-42.6 13.8-25.8 24.1-36.1 22.6-18.5 36.1-24.1 28-8.5 42.6-8.5c29.5 0 57.8 11.7 78.7 32.6s32.6 49.2 32.6 78.7z"/></svg>