<svg xmlns="http://www.w3.org/2000/svg" width="800" height="800" viewBox="0 0 24 24" fill="none" xmlns:v="https://vecta.io/nano"><path d="M22 3.471v17.059A1.47 1.47 0 0 1 20.529 22H3.471A1.47 1.47 0 0 1 2 20.529V3.471A1.47 1.47 0 0 1 3.471 2h17.059A1.47 1.47 0 0 1 22 3.471zM7.882 9.647H4.941v9.412h2.941V9.647zm.265-3.235c.002-.222-.041-.443-.124-.649s-.207-.394-.363-.552-.342-.285-.547-.371-.425-.132-.647-.133h-.053c-.452 0-.886.18-1.206.5s-.5.754-.5 1.206.18.886.5 1.206.754.5 1.206.5c.222.005.444-.033.652-.113s.397-.2.559-.354.29-.337.381-.541.139-.423.145-.645v-.053zm10.912 6.929c0-2.829-1.8-3.929-3.588-3.929-.585-.029-1.168.095-1.691.362s-.966.665-1.286 1.156h-.082V9.647H9.647v9.412h2.941v-5.006c-.043-.513.119-1.021.449-1.416s.803-.642 1.315-.69h.112c.935 0 1.629.588 1.629 2.07v5.041h2.941l.024-5.718z" fill="currentColor"/></svg>