<svg width="131" height="142" viewBox="0 0 131 142" fill="none" xmlns="http://www.w3.org/2000/svg">
<g opacity="0.2">
<path d="M131 142L86.6678 0H51.4726L88.661 112.474H43.5032L59.2336 56.7221H28.0781L0 142H131Z" fill="url(#paint0_linear_2563_29017)"/>
</g>
<path fill-rule="evenodd" clip-rule="evenodd" d="M85.8027 94.2094L84.0914 94.1275L83.4843 92.5252C83.3942 92.2877 83.2475 92.2877 83.1574 92.5252L82.5503 94.1275L80.839 94.2094C80.5838 94.2211 80.5387 94.3616 80.7372 94.5205L82.0732 95.5926C82.0732 95.5926 81.7914 96.6295 81.6229 97.245C81.5562 97.4908 81.6746 97.5761 81.8881 97.4373C82.4218 97.0878 83.3209 96.499 83.3209 96.499L84.7536 97.4373C84.9671 97.5761 85.0855 97.4908 85.0188 97.245L84.5685 95.5926L85.9045 94.5205C86.1013 94.3616 86.0563 94.2228 85.8027 94.2094Z" fill="url(#paint1_linear_2563_29017)"/>
<path d="M83.3186 92.3475C83.3786 92.3475 83.437 92.4077 83.4821 92.5264L84.0892 94.1287L85.8005 94.2106C86.0557 94.2223 86.1007 94.3628 85.9022 94.5217L84.5662 95.5937L85.0166 97.2462C85.0616 97.4117 85.0232 97.5054 84.9265 97.5054C84.8798 97.5054 84.8214 97.4836 84.7514 97.4385L83.3186 96.5002C83.3186 96.5002 82.4196 97.0889 81.8858 97.4385C81.8175 97.4836 81.7574 97.5054 81.7107 97.5054C81.614 97.5054 81.5756 97.4117 81.6206 97.2462C81.7891 96.6307 82.071 95.5937 82.071 95.5937L80.735 94.5217C80.5365 94.3628 80.5815 94.2223 80.8367 94.2106L82.548 94.1287L83.1551 92.5264C83.2002 92.406 83.2602 92.3475 83.3186 92.3475ZM83.3186 92.3307C83.2502 92.3307 83.1852 92.3976 83.1401 92.5197L82.5363 94.1103L80.8367 94.1922C80.7066 94.1989 80.6215 94.239 80.6015 94.3043C80.5798 94.3695 80.6249 94.4514 80.7266 94.5334L82.0543 95.5988L81.6073 97.2411C81.5789 97.3482 81.5823 97.4301 81.619 97.477C81.6406 97.5054 81.674 97.5204 81.714 97.5204C81.7657 97.5204 81.8275 97.497 81.8975 97.4502C82.4012 97.1207 83.2269 96.5805 83.3219 96.517L84.7464 97.4502C84.8164 97.497 84.8781 97.5204 84.9298 97.5204C84.9699 97.5204 85.0032 97.5054 85.0249 97.477C85.0616 97.4285 85.0649 97.3465 85.0366 97.2411L84.5896 95.5988L85.9173 94.5334C86.019 94.4514 86.064 94.3695 86.0423 94.3043C86.0207 94.239 85.9373 94.1989 85.8072 94.1922L84.1075 94.1103L83.5037 92.5197C83.452 92.3976 83.3887 92.3307 83.3186 92.3307Z" fill="url(#paint2_linear_2563_29017)"/>
<path fill-rule="evenodd" clip-rule="evenodd" d="M85.8027 94.2094L84.0914 94.1275L83.4843 92.5252C83.3942 92.2877 83.2475 92.2877 83.1574 92.5252L82.5503 94.1275L80.839 94.2094C80.5838 94.2211 80.5387 94.3616 80.7372 94.5205L82.0732 95.5926C82.0732 95.5926 81.7914 96.6295 81.6229 97.245C81.5562 97.4908 81.6746 97.5761 81.8881 97.4373C82.4218 97.0878 83.3209 96.499 83.3209 96.499L84.5685 95.5926L85.9045 94.5205C86.1013 94.3616 86.0563 94.2228 85.8027 94.2094Z" fill="url(#paint3_linear_2563_29017)"/>
<path opacity="0.5" fill-rule="evenodd" clip-rule="evenodd" d="M85.8027 94.2094L84.0914 94.1275L83.4843 92.5252C83.3942 92.2877 83.2475 92.2877 83.1574 92.5252L82.5503 94.1275L80.839 94.2094C80.5838 94.2211 80.5387 94.3616 80.7372 94.5205L82.0732 95.5926C82.0732 95.5926 81.7914 96.6295 81.6229 97.245C81.5562 97.4908 81.6746 97.5761 81.8881 97.4373C82.4218 97.0878 83.3209 96.499 83.3209 96.499L84.5685 95.5926L85.9045 94.5205C86.1013 94.3616 86.0563 94.2228 85.8027 94.2094Z" fill="url(#paint4_linear_2563_29017)"/>
<path fill-rule="evenodd" clip-rule="evenodd" d="M50.6542 94.2094L48.9429 94.1275L48.3358 92.5252C48.2457 92.2877 48.099 92.2877 48.0089 92.5252L47.4018 94.1275L45.6905 94.2094C45.4353 94.2211 45.3902 94.3616 45.5887 94.5205L46.9247 95.5926C46.9247 95.5926 46.6429 96.6295 46.4744 97.245C46.4077 97.4908 46.5261 97.5761 46.7396 97.4373C47.2733 97.0878 48.1724 96.499 48.1724 96.499L49.6051 97.4373C49.8186 97.5761 49.937 97.4908 49.8703 97.245L49.42 95.5926L50.756 94.5205C50.9545 94.3616 50.9078 94.2228 50.6542 94.2094Z" fill="url(#paint5_linear_2563_29017)"/>
<path d="M48.1701 92.3475C48.2301 92.3475 48.2885 92.4077 48.3336 92.5264L48.9407 94.1287L50.652 94.2106C50.9072 94.2223 50.9522 94.3628 50.7537 94.5217L49.4177 95.5937L49.8681 97.2462C49.9131 97.4117 49.8747 97.5054 49.778 97.5054C49.7313 97.5054 49.6729 97.4836 49.6029 97.4385L48.1701 96.5002C48.1701 96.5002 47.2711 97.0889 46.7373 97.4385C46.6689 97.4836 46.6089 97.5054 46.5622 97.5054C46.4655 97.5054 46.4271 97.4117 46.4721 97.2462C46.6406 96.6307 46.9225 95.5937 46.9225 95.5937L45.5865 94.5217C45.388 94.3628 45.433 94.2223 45.6882 94.2106L47.3995 94.1287L48.0066 92.5264C48.0517 92.406 48.1117 92.3475 48.1701 92.3475ZM48.1701 92.3307C48.1017 92.3307 48.0367 92.3976 47.9916 92.5197L47.3878 94.1103L45.6882 94.1922C45.5581 94.1989 45.473 94.239 45.453 94.3043C45.4313 94.3695 45.4764 94.4514 45.5781 94.5334L46.9058 95.5988L46.4588 97.2411C46.4304 97.3482 46.4338 97.4301 46.4705 97.477C46.4921 97.5054 46.5255 97.5204 46.5655 97.5204C46.6172 97.5204 46.679 97.497 46.749 97.4502C47.2527 97.1207 48.0784 96.5805 48.1734 96.517L49.5978 97.4502C49.6679 97.497 49.7296 97.5204 49.7813 97.5204C49.8214 97.5204 49.8547 97.5054 49.8764 97.477C49.9131 97.4285 49.9164 97.3465 49.8881 97.2411L49.4411 95.5988L50.7687 94.5334C50.8705 94.4514 50.9155 94.3695 50.8938 94.3043C50.8722 94.239 50.7888 94.1989 50.6587 94.1922L48.959 94.1103L48.3552 92.5197C48.3035 92.3976 48.2401 92.3307 48.1701 92.3307Z" fill="url(#paint6_linear_2563_29017)"/>
<path fill-rule="evenodd" clip-rule="evenodd" d="M50.6542 94.2094L48.9429 94.1275L48.3358 92.5252C48.2457 92.2877 48.099 92.2877 48.0089 92.5252L47.4018 94.1275L45.6905 94.2094C45.4353 94.2211 45.3902 94.3616 45.5887 94.5205L46.9247 95.5926C46.9247 95.5926 46.6429 96.6295 46.4744 97.245C46.4077 97.4908 46.5261 97.5761 46.7396 97.4373C47.2733 97.0878 48.1724 96.499 48.1724 96.499L49.42 95.5926L50.756 94.5205C50.9545 94.3616 50.9078 94.2228 50.6542 94.2094Z" fill="url(#paint7_linear_2563_29017)"/>
<path opacity="0.5" fill-rule="evenodd" clip-rule="evenodd" d="M50.6542 94.2094L48.9429 94.1275L48.3358 92.5252C48.2457 92.2877 48.099 92.2877 48.0089 92.5252L47.4018 94.1275L45.6905 94.2094C45.4353 94.2211 45.3902 94.3616 45.5887 94.5205L46.9247 95.5926C46.9247 95.5926 46.6429 96.6295 46.4744 97.245C46.4077 97.4908 46.5261 97.5761 46.7396 97.4373C47.2733 97.0878 48.1724 96.499 48.1724 96.499L49.42 95.5926L50.756 94.5205C50.9545 94.3616 50.9078 94.2228 50.6542 94.2094Z" fill="url(#paint8_linear_2563_29017)"/>
<path fill-rule="evenodd" clip-rule="evenodd" d="M59.3509 94.2094L57.6396 94.1275L57.0325 92.5252C56.9424 92.2877 56.7956 92.2877 56.7056 92.5252L56.0984 94.1275L54.3871 94.2094C54.1319 94.2211 54.0869 94.3616 54.2854 94.5205L55.6214 95.5926C55.6214 95.5926 55.3395 96.6295 55.171 97.245C55.1043 97.4908 55.2228 97.5761 55.4363 97.4373C55.97 97.0878 56.869 96.499 56.869 96.499L58.3018 97.4373C58.5153 97.5761 58.6337 97.4908 58.567 97.245L58.1166 95.5926L59.4527 94.5205C59.6495 94.3616 59.6044 94.2228 59.3509 94.2094Z" fill="url(#paint9_linear_2563_29017)"/>
<path d="M56.8668 92.3475C56.9268 92.3475 56.9852 92.4077 57.0302 92.5264L57.6373 94.1287L59.3486 94.2106C59.6038 94.2223 59.6489 94.3628 59.4504 94.5217L58.1144 95.5937L58.5647 97.2462C58.6097 97.4117 58.5714 97.5054 58.4746 97.5054C58.4279 97.5054 58.3696 97.4836 58.2995 97.4385L56.8668 96.5002C56.8668 96.5002 55.9677 97.0889 55.434 97.4385C55.3656 97.4836 55.3056 97.5054 55.2589 97.5054C55.1621 97.5054 55.1238 97.4117 55.1688 97.2462C55.3373 96.6307 55.6191 95.5937 55.6191 95.5937L54.2831 94.5217C54.0846 94.3628 54.1297 94.2223 54.3849 94.2106L56.0962 94.1287L56.7033 92.5264C56.7483 92.406 56.8084 92.3475 56.8668 92.3475ZM56.8668 92.3307C56.7984 92.3307 56.7333 92.3976 56.6883 92.5197L56.0845 94.1103L54.3849 94.1922C54.2548 94.1989 54.1697 94.239 54.1497 94.3043C54.128 94.3695 54.173 94.4514 54.2748 94.5334L55.6025 95.5988L55.1554 97.2411C55.1271 97.3482 55.1304 97.4301 55.1671 97.477C55.1888 97.5054 55.2222 97.5204 55.2622 97.5204C55.3139 97.5204 55.3756 97.497 55.4457 97.4502C55.9494 97.1207 56.775 96.5805 56.8701 96.517L58.2945 97.4502C58.3646 97.497 58.4263 97.5204 58.478 97.5204C58.518 97.5204 58.5514 97.5054 58.5731 97.477C58.6098 97.4285 58.6131 97.3465 58.5847 97.2411L58.1377 95.5988L59.4654 94.5334C59.5671 94.4514 59.6122 94.3695 59.5905 94.3043C59.5688 94.239 59.4854 94.1989 59.3553 94.1922L57.6557 94.1103L57.0519 92.5197C57.0002 92.3976 56.9368 92.3307 56.8668 92.3307Z" fill="url(#paint10_linear_2563_29017)"/>
<path fill-rule="evenodd" clip-rule="evenodd" d="M59.3509 94.2094L57.6396 94.1275L57.0325 92.5252C56.9424 92.2877 56.7956 92.2877 56.7056 92.5252L56.0984 94.1275L54.3871 94.2094C54.1319 94.2211 54.0869 94.3616 54.2854 94.5205L55.6214 95.5926C55.6214 95.5926 55.3395 96.6295 55.171 97.245C55.1043 97.4908 55.2228 97.5761 55.4363 97.4373C55.97 97.0878 56.869 96.499 56.869 96.499L58.1166 95.5926L59.4527 94.5205C59.6495 94.3616 59.6044 94.2228 59.3509 94.2094Z" fill="url(#paint11_linear_2563_29017)"/>
<path opacity="0.5" fill-rule="evenodd" clip-rule="evenodd" d="M59.3509 94.2094L57.6396 94.1275L57.0325 92.5252C56.9424 92.2877 56.7956 92.2877 56.7056 92.5252L56.0984 94.1275L54.3871 94.2094C54.1319 94.2211 54.0869 94.3616 54.2854 94.5205L55.6214 95.5926C55.6214 95.5926 55.3395 96.6295 55.171 97.245C55.1043 97.4908 55.2228 97.5761 55.4363 97.4373C55.97 97.0878 56.869 96.499 56.869 96.499L58.1166 95.5926L59.4527 94.5205C59.6495 94.3616 59.6044 94.2228 59.3509 94.2094Z" fill="url(#paint12_linear_2563_29017)"/>
<path fill-rule="evenodd" clip-rule="evenodd" d="M68.2277 94.2095L66.5164 94.1276L65.9092 92.5253C65.8192 92.2879 65.6724 92.2879 65.5823 92.5253L64.9752 94.1276L63.2639 94.2095C63.0087 94.2212 62.9637 94.3617 63.1621 94.5206L64.4982 95.5927C64.4982 95.5927 64.2163 96.6296 64.0478 97.2451C63.9811 97.4909 64.0995 97.5762 64.313 97.4374C64.8468 97.0879 65.7458 96.4991 65.7458 96.4991L67.1785 97.4374C67.392 97.5762 67.5105 97.4909 67.4437 97.2451L66.9934 95.5927L68.3294 94.5206C68.5279 94.3617 68.4829 94.2229 68.2277 94.2095Z" fill="url(#paint13_linear_2563_29017)"/>
<path d="M65.7452 92.3475C65.8052 92.3475 65.8636 92.4077 65.9086 92.5264L66.5158 94.1287L68.2271 94.2106C68.4823 94.2223 68.5273 94.3628 68.3288 94.5217L66.9928 95.5937L67.4431 97.2462C67.4882 97.4117 67.4498 97.5054 67.3531 97.5054C67.3064 97.5054 67.248 97.4836 67.1779 97.4385L65.7452 96.5002C65.7452 96.5002 64.8461 97.0889 64.3124 97.4385C64.244 97.4836 64.184 97.5054 64.1373 97.5054C64.0405 97.5054 64.0022 97.4117 64.0472 97.2462C64.2157 96.6307 64.4976 95.5937 64.4976 95.5937L63.1615 94.5217C62.963 94.3628 63.0081 94.2223 63.2633 94.2106L64.9746 94.1287L65.5817 92.5264C65.6267 92.406 65.6851 92.3475 65.7452 92.3475ZM65.7452 92.3307C65.6768 92.3307 65.6117 92.3976 65.5667 92.5197L64.9629 94.1103L63.2633 94.1922C63.1332 94.1989 63.0481 94.239 63.0281 94.3043C63.0064 94.3695 63.0514 94.4514 63.1532 94.5334L64.4809 95.5988L64.0339 97.2411C64.0055 97.3482 64.0088 97.4301 64.0455 97.477C64.0672 97.5054 64.1006 97.5204 64.1406 97.5204C64.1923 97.5204 64.254 97.497 64.3241 97.4502C64.8278 97.1207 65.6534 96.5805 65.7485 96.517L67.1729 97.4502C67.243 97.497 67.3047 97.5204 67.3564 97.5204C67.3964 97.5204 67.4298 97.5054 67.4515 97.477C67.4882 97.4285 67.4915 97.3465 67.4632 97.2411L67.0161 95.5988L68.3438 94.5334C68.4456 94.4514 68.4906 94.3695 68.4689 94.3043C68.4472 94.239 68.3638 94.1989 68.2337 94.1922L66.5341 94.1103L65.9303 92.5197C65.8769 92.3976 65.8136 92.3307 65.7452 92.3307Z" fill="url(#paint14_linear_2563_29017)"/>
<path fill-rule="evenodd" clip-rule="evenodd" d="M68.2277 94.2095L66.5164 94.1276L65.9092 92.5253C65.8192 92.2879 65.6724 92.2879 65.5823 92.5253L64.9752 94.1276L63.2639 94.2095C63.0087 94.2212 62.9637 94.3617 63.1621 94.5206L64.4982 95.5927C64.4982 95.5927 64.2163 96.6296 64.0478 97.2451C63.9811 97.4909 64.0995 97.5762 64.313 97.4374C64.8468 97.0879 65.7458 96.4991 65.7458 96.4991L66.9934 95.5927L68.3294 94.5206C68.5279 94.3617 68.4829 94.2229 68.2277 94.2095Z" fill="url(#paint15_linear_2563_29017)"/>
<path opacity="0.5" fill-rule="evenodd" clip-rule="evenodd" d="M68.2277 94.2095L66.5164 94.1276L65.9092 92.5253C65.8192 92.2879 65.6724 92.2879 65.5823 92.5253L64.9752 94.1276L63.2639 94.2095C63.0087 94.2212 62.9637 94.3617 63.1621 94.5206L64.4982 95.5927C64.4982 95.5927 64.2163 96.6296 64.0478 97.2451C63.9811 97.4909 64.0995 97.5762 64.313 97.4374C64.8468 97.0879 65.7458 96.4991 65.7458 96.4991L66.9934 95.5927L68.3294 94.5206C68.5279 94.3617 68.4829 94.2229 68.2277 94.2095Z" fill="url(#paint16_linear_2563_29017)"/>
<path fill-rule="evenodd" clip-rule="evenodd" d="M76.9243 94.2095L75.213 94.1276L74.6059 92.5253C74.5158 92.2879 74.369 92.2879 74.279 92.5253L73.6718 94.1276L71.9605 94.2095C71.7053 94.2212 71.6603 94.3617 71.8588 94.5206L73.1948 95.5927C73.1948 95.5927 72.9129 96.6296 72.7445 97.2451C72.6778 97.4909 72.7962 97.5762 73.0097 97.4374C73.5434 97.0879 74.4424 96.4991 74.4424 96.4991L75.8752 97.4374C76.0887 97.5762 76.2071 97.4909 76.1404 97.2451L75.6901 95.5927L77.0261 94.5206C77.2245 94.3617 77.1795 94.2229 76.9243 94.2095Z" fill="url(#paint17_linear_2563_29017)"/>
<path d="M74.4418 92.3475C74.5019 92.3475 74.5603 92.4077 74.6053 92.5264L75.2124 94.1287L76.9237 94.2106C77.1789 94.2223 77.224 94.3628 77.0255 94.5217L75.6895 95.5937L76.1398 97.2462C76.1848 97.4117 76.1465 97.5054 76.0497 97.5054C76.003 97.5054 75.9446 97.4836 75.8746 97.4385L74.4418 96.5002C74.4418 96.5002 73.5428 97.0889 73.0091 97.4385C72.9407 97.4836 72.8806 97.5054 72.8339 97.5054C72.7372 97.5054 72.6988 97.4117 72.7439 97.2462C72.9123 96.6307 73.1942 95.5937 73.1942 95.5937L71.8582 94.5217C71.6597 94.3628 71.7047 94.2223 71.9599 94.2106L73.6712 94.1287L74.2784 92.5264C74.3234 92.406 74.3818 92.3475 74.4418 92.3475ZM74.4418 92.3307C74.3734 92.3307 74.3084 92.3976 74.2634 92.5197L73.6596 94.1103L71.9599 94.1922C71.8298 94.1989 71.7448 94.239 71.7248 94.3043C71.7031 94.3695 71.7481 94.4514 71.8498 94.5334L73.1775 95.5988L72.7305 97.2411C72.7022 97.3482 72.7055 97.4301 72.7422 97.477C72.7639 97.5054 72.7972 97.5204 72.8373 97.5204C72.889 97.5204 72.9507 97.497 73.0207 97.4502C73.5245 97.1207 74.3501 96.5805 74.4452 96.517L75.8696 97.4502C75.9396 97.497 76.0014 97.5204 76.0531 97.5204C76.0931 97.5204 76.1265 97.5054 76.1481 97.477C76.1848 97.4285 76.1882 97.3465 76.1598 97.2411L75.7128 95.5988L77.0405 94.5334C77.1422 94.4514 77.1873 94.3695 77.1656 94.3043C77.1439 94.239 77.0605 94.1989 76.9304 94.1922L75.2241 94.1103L74.6203 92.5197C74.5736 92.3976 74.5102 92.3307 74.4418 92.3307Z" fill="url(#paint18_linear_2563_29017)"/>
<path fill-rule="evenodd" clip-rule="evenodd" d="M76.9243 94.2095L75.213 94.1276L74.6059 92.5253C74.5158 92.2879 74.369 92.2879 74.279 92.5253L73.6718 94.1276L71.9605 94.2095C71.7053 94.2212 71.6603 94.3617 71.8588 94.5206L73.1948 95.5927C73.1948 95.5927 72.9129 96.6296 72.7445 97.2451C72.6778 97.4909 72.7962 97.5762 73.0097 97.4374C73.5434 97.0879 74.4424 96.4991 74.4424 96.4991L75.6901 95.5927L77.0261 94.5206C77.2245 94.3617 77.1795 94.2229 76.9243 94.2095Z" fill="url(#paint19_linear_2563_29017)"/>
<path opacity="0.5" fill-rule="evenodd" clip-rule="evenodd" d="M76.9243 94.2095L75.213 94.1276L74.6059 92.5253C74.5158 92.2879 74.369 92.2879 74.279 92.5253L73.6718 94.1276L71.9605 94.2095C71.7053 94.2212 71.6603 94.3617 71.8588 94.5206L73.1948 95.5927C73.1948 95.5927 72.9129 96.6296 72.7445 97.2451C72.6778 97.4909 72.7962 97.5762 73.0097 97.4374C73.5434 97.0879 74.4424 96.4991 74.4424 96.4991L75.6901 95.5927L77.0261 94.5206C77.2245 94.3617 77.1795 94.2229 76.9243 94.2095Z" fill="url(#paint20_linear_2563_29017)"/>
<path d="M16.8011 68.5538L21.1495 82.4872H8.4848L11.1835 74.2887H13.8956L12.3044 79.9333H17.46L13.6971 68.5538H16.8011Z" fill="#0F2335"/>
<path d="M57.0569 68.5532L61.4052 82.4866H48.7405L51.4393 74.2881H54.1513L52.5601 79.9328H57.7157L53.9528 68.5532H57.0569Z" fill="#0F2335"/>
<path d="M120.068 68.5515L124.417 82.4849H111.752L114.451 74.2864H117.163L115.572 79.931H120.727L116.964 68.5515H120.068Z" fill="#0F2335"/>
<path d="M23.0192 68.5532L29.1039 68.5482C30.0229 68.5482 30.6684 68.6502 31.3589 68.8191C31.9861 68.9763 32.2446 69.1636 32.73 69.647C33.1003 70.0082 33.3271 70.3293 33.5006 70.8746C33.6757 71.4198 33.7691 72.0871 33.7691 72.8615V82.4849H30.6784V72.8866C30.6784 72.4099 30.4232 71.8747 30.2464 71.6556C30.0263 71.3964 29.4275 71.1154 28.752 71.1154H26.0966V82.4832H23.0176V68.5532H23.0192Z" fill="#0F2335"/>
<path d="M36.1076 68.5532L42.1922 68.5482C43.1112 68.5482 43.7567 68.6502 44.4473 68.8191C45.0744 68.9763 45.3329 69.1636 45.8183 69.647C46.1886 70.0082 46.4154 70.3293 46.5889 70.8746C46.764 71.4198 46.8574 72.0871 46.8574 72.8615V82.4849H43.7667V72.8866C43.7667 72.4099 43.5115 71.8747 43.3347 71.6556C43.1146 71.3964 42.5158 71.1154 41.8403 71.1154H39.1849V82.4832H36.1059V68.5532H36.1076Z" fill="#0F2335"/>
<path d="M99.0422 68.5565L105.127 68.5515C106.046 68.5515 106.691 68.6535 107.382 68.8225C108.009 68.9797 108.268 69.167 108.753 69.6503C109.123 70.0116 109.35 70.3327 109.524 70.8779C109.699 71.4232 109.792 72.0905 109.792 72.8648V82.4883H106.701V72.8899C106.701 72.4133 106.446 71.8781 106.269 71.659C106.049 71.3997 105.45 71.1188 104.775 71.1188H102.12V82.4866H99.0422V68.5565Z" fill="#0F2335"/>
<path d="M63.0014 68.5532L67.318 68.5482C68.3721 68.5482 69.2328 68.6034 69.8733 68.8007C70.5138 68.9981 71.0342 69.3275 71.5112 69.8042C71.9032 70.1989 72.1884 70.7123 72.3902 71.2576C72.5904 71.7961 72.6454 72.3196 72.6454 72.8849C72.6454 73.4502 72.507 73.9185 72.2935 74.4353C72.08 74.9538 71.7714 75.3418 71.3728 75.7432C70.8891 76.2198 70.4304 76.4523 69.8366 76.6379C69.2445 76.8219 68.4572 76.8587 67.5098 76.8587H66.0921V82.4833H62.9997V74.2848H67.5382C67.9085 74.2848 68.0803 74.2128 68.2871 74.1794C68.4939 74.1459 68.7624 73.962 68.8825 73.8733C69.1361 73.5857 69.4096 73.099 69.4096 72.7511C69.4096 72.3898 69.1494 71.6774 68.8825 71.5202C68.6157 71.3629 68.1637 71.1137 67.5365 71.1137H62.998V68.5532H63.0014Z" fill="#0F2335"/>
<path d="M85.3184 68.5565V82.4849H78.7601C77.8844 82.4849 77.1588 82.3745 76.5734 82.1588C76.1748 82.0099 75.9463 81.8226 75.5977 81.4965C75.2557 81.1754 75.0906 80.861 74.8905 80.4228C74.6169 79.8257 74.5585 79.0028 74.5585 77.8589V68.5565H77.6442V77.4859C77.6442 77.9358 77.6592 78.4727 77.7159 78.68C77.741 78.7737 77.8043 78.9711 77.9027 79.1467C78.0228 79.3607 78.2297 79.5313 78.3147 79.6016C78.4365 79.7036 78.6883 79.8073 78.8868 79.8474C79.0853 79.8876 79.4373 79.9327 79.7792 79.9327H82.2327V68.5582H85.3184V68.5565Z" fill="#0F2335"/>
<path d="M87.4518 68.5633L91.9219 68.5532C92.8125 68.5532 93.6799 68.6402 94.3237 68.8024C94.7507 68.9111 95.171 69.1536 95.5163 69.3995C95.8782 69.6571 96.0834 69.8945 96.3202 70.2274C96.557 70.5602 96.7088 70.8596 96.8623 71.276C97.0157 71.6925 97.1108 72.2962 97.1108 72.7528C97.1108 73.6309 96.8072 74.2932 96.6605 74.631C96.4186 75.1077 96.0767 75.5157 95.9666 75.6128C95.7464 75.8084 95.3044 76.1964 95.0576 76.3319C95.1009 76.3587 95.231 76.444 95.3478 76.5226C95.4379 76.5845 95.558 76.7065 95.6347 76.7868C95.8282 76.9875 95.8015 76.9825 96.0016 77.2618C96.0383 77.3137 96.477 78.0211 96.477 78.8774L96.467 82.4883H93.388V79.135C93.3563 78.4844 93.1428 77.9893 93.1144 77.9559C93.0811 77.9141 92.986 77.5328 92.3655 77.1849C92.2888 77.1414 91.5616 76.8353 91.0012 76.8554L87.4518 76.8604V74.2881L91.9535 74.2831C92.1537 74.2831 92.5123 74.2514 92.8059 74.161C93.0744 74.0774 93.2796 73.9185 93.3563 73.8583C93.5164 73.7312 93.6248 73.5556 93.6832 73.4502C93.88 73.1425 93.8934 72.6809 93.8533 72.4217C93.7716 71.9099 93.5831 71.6941 93.3563 71.5185C93.0627 71.2911 92.5774 71.1523 91.9535 71.1188L87.4518 71.1171V68.5633Z" fill="#0F2335"/>
<path d="M33.5873 89.2692C33.594 89.1906 33.624 89.1605 33.7024 89.1605H34.0276C34.0993 89.1605 34.136 89.1906 34.1294 89.2692C34.1294 89.3177 34.1227 89.4632 34.111 89.5903C34.051 90.2309 33.9359 90.2493 33.4772 90.2744C33.1403 90.2861 33.0302 90.2861 32.6082 90.2744C32.1445 90.2509 32.0361 90.2325 31.9744 89.5903C31.9193 88.9865 31.9143 87.7706 31.9744 87.0866C32.0344 86.446 32.1495 86.4276 32.6082 86.4092C32.9285 86.3908 33.0669 86.3908 33.4772 86.4092C33.9409 86.4276 34.0493 86.4577 34.111 87.0866L34.1344 87.4194C34.141 87.498 34.1043 87.5281 34.0326 87.5281H33.7007C33.6223 87.5281 33.5923 87.498 33.5856 87.4194C33.5856 87.3826 33.5789 87.2505 33.5673 87.1351C33.5556 86.9227 33.5306 86.8993 33.4472 86.8993C33.0852 86.8876 32.9651 86.8876 32.6266 86.8993C32.5548 86.8993 32.5298 86.9361 32.5181 87.1284C32.4631 87.7991 32.4581 88.8879 32.5181 89.5418C32.5298 89.7542 32.5548 89.7776 32.6332 89.7843C33.0135 89.8027 33.0969 89.8027 33.4472 89.7843C33.5322 89.7776 33.5556 89.7609 33.5673 89.5485L33.5873 89.2692Z" stroke="url(#paint21_radial_2563_29017)" stroke-width="0.5" stroke-miterlimit="10"/>
<path d="M38.4877 86.4019C38.9514 86.4253 39.0598 86.4437 39.1215 87.086C39.1766 87.6897 39.1816 88.9056 39.1215 89.5896C39.0615 90.2302 38.9464 90.2486 38.4877 90.267C38.1675 90.2854 38.029 90.2854 37.6187 90.267C37.155 90.2486 37.0466 90.2185 36.9849 89.5896C36.9298 88.9909 36.9248 87.7633 36.9849 87.086C37.0449 86.4454 37.16 86.427 37.6187 86.4019C37.9573 86.3902 38.0657 86.3902 38.4877 86.4019ZM38.0841 89.7887C38.2108 89.7887 38.3126 89.782 38.4694 89.777C38.5411 89.777 38.5661 89.7402 38.5778 89.5478C38.6328 88.8772 38.6378 87.7884 38.5778 87.1345C38.5661 86.922 38.5411 86.8986 38.4627 86.8919C38.2458 86.8853 38.1424 86.8853 38.0223 86.8853C37.9023 86.8853 37.8172 86.8853 37.6487 86.8919C37.5637 86.8986 37.5403 86.9154 37.5286 87.1278C37.4736 87.7934 37.4686 88.8939 37.5286 89.5411C37.5403 89.7536 37.5653 89.777 37.6487 89.777C37.8489 89.782 37.9706 89.7887 38.0841 89.7887Z" stroke="url(#paint22_radial_2563_29017)" stroke-width="0.5" stroke-miterlimit="10"/>
<path d="M43.7 86.5356C43.7 86.457 43.7367 86.4269 43.8084 86.4269H44.1337C44.2121 86.4269 44.2421 86.457 44.2421 86.5356V88.3319C44.2421 88.7918 44.2304 89.2501 44.2004 89.5829C44.1403 90.2235 44.0253 90.2419 43.5666 90.267C43.2296 90.2787 43.1196 90.2787 42.6976 90.267C42.2339 90.2435 42.1255 90.2251 42.0638 89.5829C42.0337 89.2802 42.0154 88.8086 42.0154 88.3319V86.5356C42.0154 86.457 42.0521 86.4269 42.1238 86.4269H42.449C42.5274 86.4269 42.5575 86.457 42.5575 86.5356V88.3319C42.5575 88.7734 42.5691 89.2083 42.6058 89.5344C42.6175 89.7468 42.6425 89.7702 42.7209 89.7769C42.9378 89.7836 43.0412 89.7836 43.1613 89.7836C43.2813 89.7836 43.3664 89.7836 43.5349 89.7769C43.6199 89.7702 43.6433 89.7535 43.655 89.5411C43.685 89.2083 43.6967 88.7734 43.6967 88.3319V86.5356H43.7Z" stroke="url(#paint23_radial_2563_29017)" stroke-width="0.5" stroke-miterlimit="10"/>
<path d="M48.9557 90.2519C48.8773 90.2519 48.8356 90.2285 48.8056 90.1549L48.2685 88.9875C48.2318 88.9206 48.1901 88.8905 48.1184 88.8905H47.7197C47.6831 88.8905 47.6647 88.9089 47.6647 88.9457V90.1432C47.6647 90.2218 47.6347 90.2519 47.5563 90.2519H47.231C47.1526 90.2519 47.1226 90.2218 47.1226 90.1432V86.5507C47.1226 86.4721 47.1526 86.442 47.231 86.442H48.6421C49.0274 86.4537 49.2276 86.4721 49.2926 87.1194C49.3293 87.4706 49.3343 87.785 49.2926 88.2132C49.2376 88.8169 49.0875 88.7935 48.8589 88.8654C48.8106 88.9073 48.8223 88.9206 48.8356 88.9808L49.3777 90.1532C49.4077 90.2252 49.3893 90.2503 49.3176 90.2503H48.9557V90.2519ZM48.6121 88.4022C48.6788 88.4022 48.7205 88.3955 48.7455 88.1965C48.8122 87.6763 48.7755 87.3987 48.7389 87.1445C48.7205 86.9872 48.7022 86.9321 48.6121 86.9321H47.7197C47.6897 86.9321 47.6647 86.9438 47.6647 86.9689V88.3654C47.6647 88.3838 47.6881 88.4022 47.7197 88.4022H48.6121V88.4022Z" stroke="url(#paint24_radial_2563_29017)" stroke-width="0.5" stroke-miterlimit="10"/>
<path d="M53.8361 89.2551C53.8427 89.1765 53.8728 89.1464 53.9512 89.1464H54.2764C54.3481 89.1464 54.3848 89.1765 54.3781 89.2551C54.3781 89.3036 54.3715 89.4491 54.3598 89.5762C54.2998 90.2168 54.1847 90.2352 53.726 90.2603C53.3891 90.272 53.279 90.272 52.857 90.2603C52.3933 90.2369 52.2849 90.2185 52.2232 89.5762C52.1681 88.9708 52.1631 87.7566 52.2232 87.0725C52.2832 86.432 52.3983 86.4136 52.857 86.3952C53.1772 86.3768 53.3157 86.3768 53.726 86.3952C54.1897 86.4136 54.2981 86.4437 54.3598 87.0725L54.3832 87.4054C54.3898 87.484 54.3531 87.5141 54.2814 87.5141H53.9495C53.8711 87.5141 53.8411 87.484 53.8344 87.4054C53.8344 87.3686 53.8277 87.2364 53.8161 87.121C53.8044 86.9086 53.7794 86.8852 53.696 86.8852C53.334 86.8735 53.2139 86.8735 52.8753 86.8852C52.8036 86.8852 52.7786 86.922 52.7669 87.1143C52.7119 87.785 52.7069 88.8738 52.7669 89.5277C52.7786 89.7401 52.8036 89.7636 52.882 89.7702C53.2623 89.7886 53.3457 89.7886 53.696 89.7702C53.781 89.7636 53.8044 89.7468 53.8161 89.5344L53.8361 89.2551Z" stroke="url(#paint25_radial_2563_29017)" stroke-width="0.5" stroke-miterlimit="10"/>
<path d="M59.0517 90.2402C58.9733 90.2402 58.9433 90.2101 58.9433 90.1315V88.638C58.9433 88.5962 58.925 88.5828 58.8883 88.5828H57.8024C57.7657 88.5828 57.7474 88.5945 57.7474 88.638V90.1315C57.7474 90.2101 57.7174 90.2402 57.639 90.2402H57.3137C57.2353 90.2402 57.2053 90.2101 57.2053 90.1315V86.5391C57.2053 86.4605 57.2353 86.4304 57.3137 86.4304H57.639C57.7174 86.4304 57.7474 86.4605 57.7474 86.5391V88.0393C57.7474 88.0761 57.7657 88.0945 57.8024 88.0945H58.8883C58.925 88.0945 58.9433 88.0761 58.9433 88.0393V86.5391C58.9433 86.4605 58.9733 86.4304 59.0517 86.4304H59.377C59.4554 86.4304 59.4854 86.4605 59.4854 86.5391V90.1315C59.4854 90.2101 59.4554 90.2402 59.377 90.2402H59.0517Z" stroke="url(#paint26_radial_2563_29017)" stroke-width="0.5" stroke-miterlimit="10"/>
<path d="M62.4943 90.2151C62.4159 90.2151 62.3859 90.185 62.3859 90.1064V86.5139C62.3859 86.4353 62.4159 86.4052 62.4943 86.4052H64.2307C64.3091 86.4052 64.3391 86.4353 64.3391 86.5139V86.7865C64.3391 86.8651 64.3091 86.8952 64.2307 86.8952H62.983C62.9464 86.8952 62.928 86.9136 62.928 86.9504V88.0141C62.928 88.0509 62.9464 88.0693 62.983 88.0693H63.9605C64.0389 88.0693 64.0689 88.0994 64.0689 88.178V88.4506C64.0689 88.5226 64.0389 88.5594 63.9605 88.5594H62.983C62.9464 88.5594 62.928 88.5711 62.928 88.6146V89.6732C62.928 89.71 62.9464 89.7284 62.983 89.7284H64.2307C64.3091 89.7284 64.3391 89.7585 64.3391 89.8371V90.1097C64.3391 90.1884 64.3091 90.2185 64.2307 90.2185H62.4943V90.2151Z" stroke="url(#paint27_radial_2563_29017)" stroke-width="0.5" stroke-miterlimit="10"/>
<path d="M72.5954 90.2151C72.517 90.2151 72.4869 90.185 72.4869 90.1064V86.5139C72.4869 86.4353 72.517 86.4052 72.5954 86.4052H74.3317C74.4101 86.4052 74.4401 86.4353 74.4401 86.5139V86.7865C74.4401 86.8651 74.4101 86.8952 74.3317 86.8952H73.0841C73.0474 86.8952 73.029 86.9136 73.029 86.9504V88.0141C73.029 88.0509 73.0474 88.0693 73.0841 88.0693H74.0615C74.1399 88.0693 74.1699 88.0994 74.1699 88.178V88.4506C74.1699 88.5226 74.1399 88.5594 74.0615 88.5594H73.0841C73.0474 88.5594 73.029 88.5711 73.029 88.6146V89.6732C73.029 89.71 73.0474 89.7284 73.0841 89.7284H74.3317C74.4101 89.7284 74.4401 89.7585 74.4401 89.8371V90.1097C74.4401 90.1884 74.4101 90.2185 74.3317 90.2185H72.5954V90.2151Z" stroke="url(#paint28_radial_2563_29017)" stroke-width="0.5" stroke-miterlimit="10"/>
<path d="M68.2421 90.2453C68.1637 90.2453 68.122 90.2151 68.1036 90.1432L67.0962 86.539C67.0778 86.4671 67.1029 86.437 67.1746 86.437H67.5298C67.6082 86.437 67.6499 86.4671 67.6633 86.539L68.157 88.4189C68.2721 88.8604 68.3438 89.2418 68.3738 89.5863C68.3922 89.6649 68.4038 89.6649 68.4222 89.5863C68.4522 89.2418 68.5239 88.8604 68.639 88.4189L69.1277 86.539C69.1394 86.4671 69.1828 86.437 69.2612 86.437H69.6164C69.6948 86.437 69.7182 86.4671 69.7015 86.539L68.6941 90.1432C68.6757 90.2151 68.634 90.2453 68.5556 90.2453H68.2421Z" stroke="url(#paint29_radial_2563_29017)" stroke-width="0.5" stroke-miterlimit="10"/>
<path d="M77.329 90.2402C77.2506 90.2402 77.2206 90.2101 77.2206 90.1315V86.5391C77.2206 86.4605 77.2506 86.4304 77.329 86.4304H77.6542C77.7326 86.4304 77.7627 86.4605 77.7627 86.5391V89.695C77.7627 89.7318 77.781 89.7502 77.8177 89.7502H79.0653C79.1437 89.7502 79.1738 89.7803 79.1738 89.8589V90.1315C79.1738 90.2101 79.1437 90.2402 79.0653 90.2402H77.329Z" stroke="url(#paint30_radial_2563_29017)" stroke-width="0.5" stroke-miterlimit="10"/>
<path d="M83.909 90.2368C83.8373 90.2368 83.8006 90.2067 83.8006 90.1281V87.0324L83.4753 87.0876C83.4036 87.0993 83.3669 87.0759 83.3552 86.9973L83.3252 86.7849C83.3069 86.7062 83.3369 86.6761 83.4153 86.6577L84.2359 86.4035C84.3143 86.3918 84.3443 86.4336 84.3443 86.5122V90.1281C84.3443 90.2067 84.3143 90.2368 84.2359 90.2368H83.909V90.2368Z" stroke="url(#paint31_radial_2563_29017)" stroke-width="0.5" stroke-miterlimit="10"/>
<path d="M89.5166 88.934C89.5283 89.0795 89.5467 89.3203 89.5166 89.5997C89.4616 90.1867 89.3532 90.2703 88.8828 90.2837C88.7744 90.2904 88.4191 90.2954 88.0138 90.277C87.5435 90.2653 87.4351 90.18 87.38 89.593C87.35 89.3153 87.3684 89.0728 87.38 88.9273C87.4284 88.449 87.5969 88.4189 87.9288 88.3403C87.5969 88.255 87.4167 88.2316 87.3684 87.7482C87.35 87.5425 87.3567 87.2766 87.375 87.0826C87.4234 86.4838 87.5435 86.4169 88.0088 86.3985C88.1106 86.3919 88.4725 86.3751 88.8895 86.3918C89.3482 86.4102 89.4749 86.4771 89.5233 87.0759C89.5417 87.2749 89.5467 87.5358 89.53 87.7415C89.4816 88.2366 89.2881 88.255 88.9445 88.347C89.2831 88.439 89.4699 88.4456 89.5166 88.934ZM88.4325 88.1312C88.631 88.0409 88.8178 87.9556 88.8728 87.9322C88.9279 87.9138 88.9629 87.8954 88.9879 87.6964C89.0113 87.4974 88.9946 87.2431 88.9812 87.1277C88.9629 86.9153 88.9445 86.8986 88.8478 86.8986C88.7461 86.8919 88.179 86.8869 88.0272 86.8986C87.9555 86.8986 87.9304 86.922 87.9188 87.1344C87.9071 87.2498 87.8887 87.504 87.9121 87.7031C87.9304 87.9021 87.9721 87.9205 88.0272 87.9389L88.4325 88.1312ZM88.0339 88.7417C87.9788 88.7601 87.9371 88.8019 87.9188 88.9775C87.8954 89.1765 87.9121 89.4307 87.9254 89.5461C87.9371 89.7585 87.9621 89.782 88.0405 89.7886C88.1423 89.7953 88.716 89.8003 88.8661 89.7886C88.9379 89.782 88.9562 89.7652 88.9746 89.5528C88.9862 89.4374 89.0046 89.1832 88.9812 88.9842C88.9579 88.8086 88.9145 88.7785 88.8661 88.7484C88.7511 88.6698 88.631 88.6095 88.4508 88.5661C88.2757 88.6079 88.0705 88.7233 88.0339 88.7417Z" stroke="url(#paint32_radial_2563_29017)" stroke-width="0.5" stroke-miterlimit="10"/>
<path d="M92.8525 89.1581C92.9309 89.1581 92.9676 89.1882 92.9676 89.2668C92.9676 89.2902 92.9793 89.4173 92.9909 89.5394C93.0093 89.7569 93.021 89.7686 93.106 89.7819C93.2995 89.8003 93.7815 89.7936 93.92 89.7819C94.01 89.7702 94.0284 89.7401 94.0401 89.5461C94.0584 89.3337 94.0584 88.8755 94.0401 88.663C94.0284 88.464 94.0034 88.4339 93.92 88.4272C93.5947 88.4088 93.5397 88.4088 93.1594 88.4272C93.021 88.4339 92.9959 88.4824 92.9959 88.5961C92.9959 88.6748 92.9726 88.7049 92.8942 88.7049H92.5689C92.4905 88.7049 92.4605 88.6748 92.4605 88.5961C92.4489 88.1128 92.4672 87.5258 92.5022 87.0842L92.5439 86.5407C92.5506 86.4621 92.5806 86.4319 92.659 86.4319H94.4387C94.5171 86.4319 94.5471 86.4621 94.5471 86.5407V86.8133C94.5471 86.8919 94.5171 86.922 94.4387 86.922H93.0877C93.051 86.922 93.0326 86.9404 93.0276 86.9772L93.0159 87.1277C93.0043 87.412 92.9976 87.7331 92.9976 88.173C93.0943 88.0091 93.2094 87.9556 93.4613 87.9372C93.503 87.9372 93.7632 87.9255 93.95 87.9305C94.4203 87.9372 94.5354 88.0576 94.5838 88.6196C94.6072 88.8621 94.6072 89.3454 94.5838 89.5863C94.5238 90.2402 94.4087 90.2452 93.95 90.2636C93.9133 90.2636 93.5213 90.2937 93.081 90.2703C92.6223 90.2519 92.5089 90.2151 92.4472 89.5863C92.4355 89.4658 92.4238 89.3203 92.4238 89.2651C92.4238 89.1865 92.4538 89.1564 92.5256 89.1564H92.8525V89.1581Z" stroke="url(#paint33_radial_2563_29017)" stroke-width="0.5" stroke-miterlimit="10"/>
<path d="M99.5877 87.2783C99.6427 87.2248 99.6594 87.2298 99.6594 87.3084C99.7078 87.8101 99.7078 88.9474 99.6527 89.588C99.5927 90.2285 99.4776 90.2469 99.0189 90.272C98.682 90.2837 98.5736 90.2837 98.1499 90.272C97.6862 90.2486 97.5761 90.2302 97.5161 89.588C97.461 88.9825 97.456 87.7683 97.5161 87.0843C97.5761 86.4437 97.6912 86.4253 98.1499 86.4069C98.4701 86.3885 98.6086 86.3885 99.0189 86.4069C99.4292 86.4253 99.5493 86.4671 99.616 86.8066C99.6394 86.9338 99.6093 86.922 99.556 86.9756L99.2057 87.3318C99.1507 87.387 99.1273 87.3736 99.1206 87.295L99.109 87.1311C99.0973 86.9187 99.0723 86.8953 98.9889 86.8953C98.7904 86.8886 98.6686 86.8836 98.5552 86.8836C98.4284 86.8836 98.3267 86.8903 98.1699 86.8953C98.0982 86.8953 98.0732 86.9321 98.0615 87.1244C98.0064 87.7951 98.0014 88.8839 98.0615 89.5378C98.0732 89.7502 98.0982 89.7736 98.1766 89.7803C98.3934 89.787 98.4968 89.787 98.6169 89.787C98.737 89.787 98.8221 89.787 98.9905 89.7803C99.0756 89.7736 99.099 89.7569 99.1106 89.5445C99.1523 89.0545 99.1957 88.3169 99.1473 87.8218C99.1407 87.7499 99.1657 87.6947 99.219 87.6395L99.5877 87.2783Z" stroke="url(#paint34_radial_2563_29017)" stroke-width="0.5" stroke-miterlimit="10"/>
<path d="M33.5873 89.2658C33.594 89.1872 33.624 89.1571 33.7024 89.1571H34.0276C34.0993 89.1571 34.136 89.1872 34.1294 89.2658C34.1294 89.3143 34.1227 89.4598 34.111 89.5869C34.051 90.2275 33.9359 90.2459 33.4772 90.271C33.1403 90.2827 33.0302 90.2827 32.6082 90.271C32.1445 90.2476 32.0361 90.2292 31.9744 89.5869C31.9193 88.9815 31.9143 87.7673 31.9744 87.0832C32.0344 86.4427 32.1495 86.4243 32.6082 86.4059C32.9285 86.3875 33.0669 86.3875 33.4772 86.4059C33.9409 86.4243 34.0493 86.4544 34.111 87.0832L34.1344 87.4161C34.141 87.4947 34.1043 87.5248 34.0326 87.5248H33.7007C33.6223 87.5248 33.5923 87.4947 33.5856 87.4161C33.5856 87.3793 33.5789 87.2471 33.5673 87.1317C33.5556 86.9193 33.5306 86.8959 33.4472 86.8959C33.0852 86.8842 32.9651 86.8842 32.6266 86.8959C32.5548 86.8959 32.5298 86.9327 32.5181 87.1251C32.4631 87.7957 32.4581 88.8845 32.5181 89.5384C32.5298 89.7508 32.5548 89.7743 32.6332 89.7809C33.0135 89.7993 33.0969 89.7993 33.4472 89.7809C33.5322 89.7743 33.5556 89.7575 33.5673 89.5451L33.5873 89.2658Z" fill="url(#paint35_linear_2563_29017)"/>
<path d="M38.4877 86.3986C38.9514 86.422 39.0598 86.4404 39.1215 87.0826C39.1766 87.688 39.1816 88.9023 39.1215 89.5863C39.0615 90.2269 38.9464 90.2453 38.4877 90.2637C38.1675 90.2821 38.029 90.2821 37.6187 90.2637C37.155 90.2453 37.0466 90.2152 36.9849 89.5863C36.9298 88.9876 36.9248 87.76 36.9849 87.0826C37.0449 86.442 37.16 86.4236 37.6187 86.3986C37.9573 86.3868 38.0657 86.3868 38.4877 86.3986ZM38.0841 89.7853C38.2108 89.7853 38.3126 89.7786 38.4694 89.7736C38.5411 89.7736 38.5661 89.7368 38.5778 89.5445C38.6328 88.8738 38.6378 87.785 38.5778 87.1311C38.5661 86.9187 38.5411 86.8953 38.4627 86.8886C38.2458 86.8819 38.1424 86.8819 38.0223 86.8819C37.9023 86.8819 37.8172 86.8819 37.6487 86.8886C37.5637 86.8953 37.5403 86.912 37.5286 87.1244C37.4736 87.7901 37.4686 88.8906 37.5286 89.5378C37.5403 89.7502 37.5653 89.7736 37.6487 89.7736C37.8489 89.7786 37.9706 89.7853 38.0841 89.7853Z" fill="url(#paint36_linear_2563_29017)"/>
<path d="M43.7 86.5323C43.7 86.4537 43.7367 86.4236 43.8084 86.4236H44.1337C44.2121 86.4236 44.2421 86.4537 44.2421 86.5323V88.3286C44.2421 88.7885 44.2304 89.2468 44.2004 89.5796C44.1403 90.2201 44.0253 90.2385 43.5666 90.2636C43.2296 90.2753 43.1196 90.2753 42.6976 90.2636C42.2339 90.2402 42.1255 90.2218 42.0638 89.5796C42.0337 89.2769 42.0154 88.8052 42.0154 88.3286V86.5323C42.0154 86.4537 42.0521 86.4236 42.1238 86.4236H42.449C42.5274 86.4236 42.5575 86.4537 42.5575 86.5323V88.3286C42.5575 88.7701 42.5691 89.2049 42.6058 89.5311C42.6175 89.7435 42.6425 89.7669 42.7209 89.7736C42.9378 89.7803 43.0412 89.7803 43.1613 89.7803C43.2813 89.7803 43.3664 89.7803 43.5349 89.7736C43.6199 89.7669 43.6433 89.7502 43.655 89.5378C43.685 89.2049 43.6967 88.7701 43.6967 88.3286V86.5323H43.7Z" fill="url(#paint37_linear_2563_29017)"/>
<path d="M48.9557 90.2485C48.8773 90.2485 48.8356 90.2251 48.8056 90.1515L48.2685 88.9841C48.2318 88.9172 48.1901 88.8871 48.1184 88.8871H47.7197C47.6831 88.8871 47.6647 88.9055 47.6647 88.9423V90.1398C47.6647 90.2184 47.6347 90.2485 47.5563 90.2485H47.231C47.1526 90.2485 47.1226 90.2184 47.1226 90.1398V86.5473C47.1226 86.4687 47.1526 86.4386 47.231 86.4386H48.6421C49.0274 86.4503 49.2276 86.4687 49.2926 87.116C49.3293 87.4672 49.3343 87.7816 49.2926 88.2098C49.2376 88.8152 49.0875 88.7901 48.8589 88.862C48.8106 88.9039 48.8223 88.9172 48.8356 88.9774L49.3777 90.1498C49.4077 90.2218 49.3893 90.2468 49.3176 90.2468H48.9557V90.2485ZM48.6121 88.3988C48.6788 88.3988 48.7205 88.3921 48.7455 88.1931C48.8122 87.6729 48.7755 87.3953 48.7389 87.1411C48.7205 86.9839 48.7022 86.9287 48.6121 86.9287H47.7197C47.6897 86.9287 47.6647 86.9404 47.6647 86.9655V88.362C47.6647 88.3804 47.6881 88.3988 47.7197 88.3988H48.6121Z" fill="url(#paint38_linear_2563_29017)"/>
<path d="M53.8361 89.2518C53.8427 89.1732 53.8728 89.143 53.9512 89.143H54.2764C54.3481 89.143 54.3848 89.1732 54.3781 89.2518C54.3781 89.3003 54.3715 89.4458 54.3598 89.5729C54.2998 90.2134 54.1847 90.2318 53.726 90.2569C53.3891 90.2686 53.279 90.2686 52.857 90.2569C52.3933 90.2335 52.2849 90.2151 52.2232 89.5729C52.1681 88.9691 52.1631 87.7532 52.2232 87.0692C52.2832 86.4286 52.3983 86.4102 52.857 86.3918C53.1772 86.3734 53.3157 86.3734 53.726 86.3918C54.1897 86.4102 54.2981 86.4403 54.3598 87.0692L54.3832 87.402C54.3898 87.4806 54.3531 87.5107 54.2814 87.5107H53.9495C53.8711 87.5107 53.8411 87.4806 53.8344 87.402C53.8344 87.3652 53.8277 87.2331 53.8161 87.1177C53.8044 86.9053 53.7794 86.8819 53.696 86.8819C53.334 86.8701 53.2139 86.8701 52.8753 86.8819C52.8036 86.8819 52.7786 86.9186 52.7669 87.111C52.7119 87.7816 52.7069 88.8704 52.7669 89.5244C52.7786 89.7368 52.8036 89.7602 52.882 89.7669C53.2623 89.7853 53.3457 89.7853 53.696 89.7669C53.781 89.7602 53.8044 89.7435 53.8161 89.5311L53.8361 89.2518Z" fill="url(#paint39_linear_2563_29017)"/>
<path d="M59.0517 90.2385C58.9733 90.2385 58.9433 90.2084 58.9433 90.1298V88.6363C58.9433 88.5944 58.925 88.5811 58.8883 88.5811H57.8024C57.7657 88.5811 57.7474 88.5928 57.7474 88.6363V90.1298C57.7474 90.2084 57.7174 90.2385 57.639 90.2385H57.3137C57.2353 90.2385 57.2053 90.2084 57.2053 90.1298V86.5373C57.2053 86.4587 57.2353 86.4286 57.3137 86.4286H57.639C57.7174 86.4286 57.7474 86.4587 57.7474 86.5373V88.0375C57.7474 88.0743 57.7657 88.0927 57.8024 88.0927H58.8883C58.925 88.0927 58.9433 88.0743 58.9433 88.0375V86.5373C58.9433 86.4587 58.9733 86.4286 59.0517 86.4286H59.377C59.4554 86.4286 59.4854 86.4587 59.4854 86.5373V90.1298C59.4854 90.2084 59.4554 90.2385 59.377 90.2385H59.0517Z" fill="url(#paint40_linear_2563_29017)"/>
<path d="M62.4943 90.2118C62.4159 90.2118 62.3859 90.1817 62.3859 90.1031V86.5106C62.3859 86.432 62.4159 86.4019 62.4943 86.4019H64.2307C64.3091 86.4019 64.3391 86.432 64.3391 86.5106V86.7832C64.3391 86.8618 64.3091 86.8919 64.2307 86.8919H62.983C62.9464 86.8919 62.928 86.9103 62.928 86.9471V88.0108C62.928 88.0476 62.9464 88.066 62.983 88.066H63.9605C64.0389 88.066 64.0689 88.0961 64.0689 88.1747V88.4473C64.0689 88.5192 64.0389 88.556 63.9605 88.556H62.983C62.9464 88.556 62.928 88.5677 62.928 88.6112V89.6699C62.928 89.7067 62.9464 89.7251 62.983 89.7251H64.2307C64.3091 89.7251 64.3391 89.7552 64.3391 89.8338V90.1064C64.3391 90.185 64.3091 90.2151 64.2307 90.2151H62.4943V90.2118Z" fill="url(#paint41_linear_2563_29017)"/>
<path d="M72.5954 90.2118C72.517 90.2118 72.4869 90.1817 72.4869 90.1031V86.5106C72.4869 86.432 72.517 86.4019 72.5954 86.4019H74.3317C74.4101 86.4019 74.4401 86.432 74.4401 86.5106V86.7832C74.4401 86.8618 74.4101 86.8919 74.3317 86.8919H73.0841C73.0474 86.8919 73.029 86.9103 73.029 86.9471V88.0108C73.029 88.0476 73.0474 88.066 73.0841 88.066H74.0615C74.1399 88.066 74.1699 88.0961 74.1699 88.1747V88.4473C74.1699 88.5192 74.1399 88.556 74.0615 88.556H73.0841C73.0474 88.556 73.029 88.5677 73.029 88.6112V89.6699C73.029 89.7067 73.0474 89.7251 73.0841 89.7251H74.3317C74.4101 89.7251 74.4401 89.7552 74.4401 89.8338V90.1064C74.4401 90.185 74.4101 90.2151 74.3317 90.2151H72.5954V90.2118Z" fill="url(#paint42_linear_2563_29017)"/>
<path d="M68.2421 90.2419C68.1637 90.2419 68.122 90.2118 68.1036 90.1399L67.0962 86.5357C67.0778 86.4638 67.1029 86.4337 67.1746 86.4337H67.5298C67.6082 86.4337 67.6499 86.4638 67.6633 86.5357L68.157 88.4155C68.2721 88.8571 68.3438 89.2384 68.3738 89.5829C68.3922 89.6615 68.4038 89.6615 68.4222 89.5829C68.4522 89.2384 68.5239 88.8571 68.639 88.4155L69.1277 86.5357C69.1394 86.4638 69.1828 86.4337 69.2612 86.4337H69.6164C69.6948 86.4337 69.7182 86.4638 69.7015 86.5357L68.6941 90.1399C68.6757 90.2118 68.634 90.2419 68.5556 90.2419H68.2421Z" fill="url(#paint43_linear_2563_29017)"/>
<path d="M77.329 90.2368C77.2506 90.2368 77.2206 90.2067 77.2206 90.1281V86.5356C77.2206 86.457 77.2506 86.4269 77.329 86.4269H77.6542C77.7326 86.4269 77.7627 86.457 77.7627 86.5356V89.6916C77.7627 89.7284 77.781 89.7468 77.8177 89.7468H79.0653C79.1437 89.7468 79.1738 89.7769 79.1738 89.8555V90.1281C79.1738 90.2067 79.1437 90.2368 79.0653 90.2368H77.329Z" fill="url(#paint44_linear_2563_29017)"/>
<path d="M83.909 90.2335C83.8373 90.2335 83.8006 90.2034 83.8006 90.1247V87.029L83.4753 87.0842C83.4036 87.0959 83.3669 87.0725 83.3552 86.9939L83.3252 86.7815C83.3069 86.7029 83.3369 86.6728 83.4153 86.6544L84.2359 86.4001C84.3143 86.3884 84.3443 86.4302 84.3443 86.5089V90.1247C84.3443 90.2034 84.3143 90.2335 84.2359 90.2335H83.909Z" fill="url(#paint45_linear_2563_29017)"/>
<path d="M89.5166 88.9323C89.5283 89.0778 89.5467 89.3186 89.5166 89.5979C89.4616 90.185 89.3532 90.2686 88.8828 90.282C88.7744 90.2887 88.4191 90.2937 88.0138 90.2753C87.5435 90.2636 87.4351 90.1783 87.38 89.5913C87.35 89.3136 87.3684 89.0711 87.38 88.9256C87.4284 88.4473 87.5969 88.4172 87.9288 88.3386C87.5969 88.2533 87.4167 88.2299 87.3684 87.7465C87.35 87.5408 87.3567 87.2749 87.375 87.0809C87.4234 86.4821 87.5435 86.4152 88.0088 86.3968C88.1106 86.3901 88.4725 86.3734 88.8895 86.3901C89.3482 86.4085 89.4749 86.4754 89.5233 87.0742C89.5417 87.2732 89.5467 87.5341 89.53 87.7398C89.4816 88.2349 89.2881 88.2533 88.9445 88.3453C89.2831 88.4356 89.4699 88.4423 89.5166 88.9323ZM88.4325 88.1278C88.631 88.0375 88.8178 87.9522 88.8728 87.9288C88.9279 87.9104 88.9629 87.892 88.9879 87.693C89.0113 87.494 88.9946 87.2398 88.9812 87.1244C88.9629 86.912 88.9445 86.8952 88.8478 86.8952C88.7461 86.8885 88.179 86.8835 88.0272 86.8952C87.9555 86.8952 87.9304 86.9186 87.9188 87.131C87.9071 87.2464 87.8887 87.5007 87.9121 87.6997C87.9304 87.8987 87.9721 87.9171 88.0272 87.9355L88.4325 88.1278ZM88.0339 88.7383C87.9788 88.7567 87.9371 88.7985 87.9188 88.9741C87.8954 89.1731 87.9121 89.4274 87.9254 89.5428C87.9371 89.7552 87.9621 89.7786 88.0405 89.7853C88.1423 89.792 88.716 89.797 88.8661 89.7853C88.9379 89.7786 88.9562 89.7619 88.9746 89.5495C88.9862 89.434 89.0046 89.1798 88.9812 88.9808C88.9579 88.8052 88.9145 88.7751 88.8661 88.745C88.7511 88.6664 88.631 88.6062 88.4508 88.5627C88.2757 88.6045 88.0705 88.7199 88.0339 88.7383Z" fill="url(#paint46_linear_2563_29017)"/>
<path d="M92.8525 89.1564C92.9309 89.1564 92.9676 89.1865 92.9676 89.2651C92.9676 89.2886 92.9793 89.4157 92.9909 89.5378C93.0093 89.7552 93.021 89.7669 93.106 89.7803C93.2995 89.7987 93.7815 89.792 93.92 89.7803C94.01 89.7686 94.0284 89.7385 94.0401 89.5444C94.0584 89.332 94.0584 88.8738 94.0401 88.6614C94.0284 88.4624 94.0034 88.4323 93.92 88.4256C93.5947 88.4072 93.5397 88.4072 93.1594 88.4256C93.021 88.4323 92.9959 88.4807 92.9959 88.5945C92.9959 88.6731 92.9726 88.7032 92.8942 88.7032H92.5689C92.4905 88.7032 92.4605 88.6731 92.4605 88.5945C92.4489 88.1111 92.4672 87.5241 92.5022 87.0826L92.5439 86.539C92.5506 86.4604 92.5806 86.4303 92.659 86.4303H94.4387C94.5171 86.4303 94.5471 86.4604 94.5471 86.539V86.8116C94.5471 86.8902 94.5171 86.9203 94.4387 86.9203H93.0877C93.051 86.9203 93.0326 86.9387 93.0276 86.9755L93.0159 87.126C93.0043 87.4104 92.9976 87.7315 92.9976 88.1713C93.0943 88.0074 93.2094 87.9539 93.4613 87.9355C93.503 87.9355 93.7632 87.9238 93.95 87.9288C94.4203 87.9355 94.5354 88.0559 94.5838 88.6179C94.6072 88.8604 94.6072 89.3438 94.5838 89.5846C94.5238 90.2385 94.4087 90.2435 93.95 90.2619C93.9133 90.2619 93.5213 90.292 93.081 90.2686C92.6223 90.2502 92.5089 90.2134 92.4472 89.5846C92.4355 89.4642 92.4238 89.3187 92.4238 89.2635C92.4238 89.1849 92.4538 89.1548 92.5256 89.1548H92.8525V89.1564Z" fill="url(#paint47_linear_2563_29017)"/>
<path d="M99.5877 87.2749C99.6427 87.2214 99.6594 87.2264 99.6594 87.305C99.7078 87.8067 99.7078 88.944 99.6527 89.5846C99.5927 90.2252 99.4776 90.2436 99.0189 90.2686C98.682 90.2803 98.5736 90.2803 98.1499 90.2686C97.6862 90.2452 97.5761 90.2268 97.5161 89.5846C97.461 88.9808 97.456 87.7649 97.5161 87.0809C97.5761 86.4403 97.6912 86.4219 98.1499 86.4035C98.4701 86.3851 98.6086 86.3851 99.0189 86.4035C99.4292 86.4219 99.5493 86.4637 99.616 86.8032C99.6394 86.9303 99.6093 86.9186 99.556 86.9722L99.2057 87.3284C99.1507 87.3836 99.1273 87.3702 99.1206 87.2916L99.109 87.1277C99.0973 86.9153 99.0723 86.8919 98.9889 86.8919C98.7904 86.8852 98.6686 86.8802 98.5552 86.8802C98.4284 86.8802 98.3267 86.8869 98.1699 86.8919C98.0982 86.8919 98.0732 86.9287 98.0615 87.121C98.0064 87.7917 98.0014 88.8805 98.0615 89.5344C98.0732 89.7468 98.0982 89.7702 98.1766 89.7769C98.3934 89.7836 98.4968 89.7836 98.6169 89.7836C98.737 89.7836 98.8221 89.7836 98.9905 89.7769C99.0756 89.7702 99.099 89.7535 99.1106 89.5411C99.1523 89.0511 99.1957 88.3135 99.1473 87.8184C99.1407 87.7465 99.1657 87.6913 99.219 87.6361L99.5877 87.2749Z" fill="url(#paint48_linear_2563_29017)"/>
<defs>
<linearGradient id="paint0_linear_2563_29017" x1="0" y1="71.0001" x2="131" y2="71.0001" gradientUnits="userSpaceOnUse">
<stop stop-color="#EEEBE9"/>
<stop offset="9.59002e-08" stop-color="#E7E3E0"/>
<stop offset="0.0616" stop-color="#D9D5D4"/>
<stop offset="0.1794" stop-color="#B4B0B3"/>
<stop offset="0.264" stop-color="#989398"/>
<stop offset="0.5225" stop-color="#F8F8F8"/>
<stop offset="0.5875" stop-color="#E9E8E9"/>
<stop offset="0.7124" stop-color="#C3C0C3"/>
<stop offset="0.8764" stop-color="#8C878A"/>
<stop offset="1" stop-color="#DADADA"/>
</linearGradient>
<linearGradient id="paint1_linear_2563_29017" x1="82.7037" y1="94.2783" x2="84.8164" y2="97.2873" gradientUnits="userSpaceOnUse">
<stop stop-color="#959696"/>
<stop offset="0.526" stop-color="#676969"/>
<stop offset="0.6204" stop-color="#6A6B6B"/>
<stop offset="0.7239" stop-color="#717273"/>
<stop offset="0.8318" stop-color="#7D7E7E"/>
<stop offset="0.9419" stop-color="#8C8D8D"/>
<stop offset="1" stop-color="#959696"/>
</linearGradient>
<linearGradient id="paint2_linear_2563_29017" x1="80.5951" y1="94.9259" x2="86.0431" y2="94.9259" gradientUnits="userSpaceOnUse">
<stop stop-color="#E7E3E0"/>
<stop offset="0.0554" stop-color="#D9D5D3"/>
<stop offset="0.1612" stop-color="#B6B3B3"/>
<stop offset="0.264" stop-color="#8F9091"/>
<stop offset="0.277" stop-color="#949495"/>
<stop offset="0.4116" stop-color="#C0C0C0"/>
<stop offset="0.5146" stop-color="#DEDDDE"/>
<stop offset="0.573" stop-color="#E9E9EA"/>
<stop offset="0.6313" stop-color="#E0E1E2"/>
<stop offset="0.7293" stop-color="#C8CACD"/>
<stop offset="0.8545" stop-color="#A1A5AA"/>
<stop offset="0.8764" stop-color="#999EA3"/>
<stop offset="1" stop-color="#B2B2B2"/>
</linearGradient>
<linearGradient id="paint3_linear_2563_29017" x1="84.0945" y1="96.2842" x2="82.4623" y2="93.8755" gradientUnits="userSpaceOnUse">
<stop stop-color="white" stop-opacity="0"/>
<stop offset="0.8739" stop-color="white" stop-opacity="0.4369"/>
<stop offset="1" stop-color="white" stop-opacity="0.5"/>
</linearGradient>
<linearGradient id="paint4_linear_2563_29017" x1="80.5747" y1="93.6255" x2="84.6099" y2="96.3195" gradientUnits="userSpaceOnUse">
<stop stop-color="#8F9091" stop-opacity="0"/>
<stop offset="0.4924" stop-color="#919292" stop-opacity="0.4924"/>
<stop offset="0.6698" stop-color="#999999" stop-opacity="0.6698"/>
<stop offset="0.7962" stop-color="#A7A6A6" stop-opacity="0.7962"/>
<stop offset="0.8981" stop-color="#BBB9B8" stop-opacity="0.8981"/>
<stop offset="0.9847" stop-color="#D5D3D1" stop-opacity="0.9847"/>
<stop offset="1" stop-color="#DBD9D7"/>
</linearGradient>
<linearGradient id="paint5_linear_2563_29017" x1="47.5556" y1="94.2783" x2="49.6682" y2="97.2873" gradientUnits="userSpaceOnUse">
<stop stop-color="#959696"/>
<stop offset="0.526" stop-color="#676969"/>
<stop offset="0.6204" stop-color="#6A6B6B"/>
<stop offset="0.7239" stop-color="#717273"/>
<stop offset="0.8318" stop-color="#7D7E7E"/>
<stop offset="0.9419" stop-color="#8C8D8D"/>
<stop offset="1" stop-color="#959696"/>
</linearGradient>
<linearGradient id="paint6_linear_2563_29017" x1="45.4469" y1="94.9259" x2="50.8949" y2="94.9259" gradientUnits="userSpaceOnUse">
<stop stop-color="#E7E3E0"/>
<stop offset="0.0554" stop-color="#D9D5D3"/>
<stop offset="0.1612" stop-color="#B6B3B3"/>
<stop offset="0.264" stop-color="#8F9091"/>
<stop offset="0.277" stop-color="#949495"/>
<stop offset="0.4116" stop-color="#C0C0C0"/>
<stop offset="0.5146" stop-color="#DEDDDE"/>
<stop offset="0.573" stop-color="#E9E9EA"/>
<stop offset="0.6313" stop-color="#E0E1E2"/>
<stop offset="0.7293" stop-color="#C8CACD"/>
<stop offset="0.8545" stop-color="#A1A5AA"/>
<stop offset="0.8764" stop-color="#999EA3"/>
<stop offset="1" stop-color="#B2B2B2"/>
</linearGradient>
<linearGradient id="paint7_linear_2563_29017" x1="48.9463" y1="96.2842" x2="47.3141" y2="93.8755" gradientUnits="userSpaceOnUse">
<stop stop-color="white" stop-opacity="0"/>
<stop offset="0.8739" stop-color="white" stop-opacity="0.4369"/>
<stop offset="1" stop-color="white" stop-opacity="0.5"/>
</linearGradient>
<linearGradient id="paint8_linear_2563_29017" x1="45.4266" y1="93.6255" x2="49.4618" y2="96.3195" gradientUnits="userSpaceOnUse">
<stop stop-color="#8F9091" stop-opacity="0"/>
<stop offset="0.4924" stop-color="#919292" stop-opacity="0.4924"/>
<stop offset="0.6698" stop-color="#999999" stop-opacity="0.6698"/>
<stop offset="0.7962" stop-color="#A7A6A6" stop-opacity="0.7962"/>
<stop offset="0.8981" stop-color="#BBB9B8" stop-opacity="0.8981"/>
<stop offset="0.9847" stop-color="#D5D3D1" stop-opacity="0.9847"/>
<stop offset="1" stop-color="#DBD9D7"/>
</linearGradient>
<linearGradient id="paint9_linear_2563_29017" x1="56.252" y1="94.2783" x2="58.3646" y2="97.2873" gradientUnits="userSpaceOnUse">
<stop stop-color="#959696"/>
<stop offset="0.526" stop-color="#676969"/>
<stop offset="0.6204" stop-color="#6A6B6B"/>
<stop offset="0.7239" stop-color="#717273"/>
<stop offset="0.8318" stop-color="#7D7E7E"/>
<stop offset="0.9419" stop-color="#8C8D8D"/>
<stop offset="1" stop-color="#959696"/>
</linearGradient>
<linearGradient id="paint10_linear_2563_29017" x1="54.1434" y1="94.9259" x2="59.5913" y2="94.9259" gradientUnits="userSpaceOnUse">
<stop stop-color="#E7E3E0"/>
<stop offset="0.0554" stop-color="#D9D5D3"/>
<stop offset="0.1612" stop-color="#B6B3B3"/>
<stop offset="0.264" stop-color="#8F9091"/>
<stop offset="0.277" stop-color="#949495"/>
<stop offset="0.4116" stop-color="#C0C0C0"/>
<stop offset="0.5146" stop-color="#DEDDDE"/>
<stop offset="0.573" stop-color="#E9E9EA"/>
<stop offset="0.6313" stop-color="#E0E1E2"/>
<stop offset="0.7293" stop-color="#C8CACD"/>
<stop offset="0.8545" stop-color="#A1A5AA"/>
<stop offset="0.8764" stop-color="#999EA3"/>
<stop offset="1" stop-color="#B2B2B2"/>
</linearGradient>
<linearGradient id="paint11_linear_2563_29017" x1="57.6428" y1="96.2842" x2="56.0105" y2="93.8755" gradientUnits="userSpaceOnUse">
<stop stop-color="white" stop-opacity="0"/>
<stop offset="0.8739" stop-color="white" stop-opacity="0.4369"/>
<stop offset="1" stop-color="white" stop-opacity="0.5"/>
</linearGradient>
<linearGradient id="paint12_linear_2563_29017" x1="54.123" y1="93.6255" x2="58.1582" y2="96.3195" gradientUnits="userSpaceOnUse">
<stop stop-color="#8F9091" stop-opacity="0"/>
<stop offset="0.4924" stop-color="#919292" stop-opacity="0.4924"/>
<stop offset="0.6698" stop-color="#999999" stop-opacity="0.6698"/>
<stop offset="0.7962" stop-color="#A7A6A6" stop-opacity="0.7962"/>
<stop offset="0.8981" stop-color="#BBB9B8" stop-opacity="0.8981"/>
<stop offset="0.9847" stop-color="#D5D3D1" stop-opacity="0.9847"/>
<stop offset="1" stop-color="#DBD9D7"/>
</linearGradient>
<linearGradient id="paint13_linear_2563_29017" x1="65.1296" y1="94.2784" x2="67.2423" y2="97.2874" gradientUnits="userSpaceOnUse">
<stop stop-color="#959696"/>
<stop offset="0.526" stop-color="#676969"/>
<stop offset="0.6204" stop-color="#6A6B6B"/>
<stop offset="0.7239" stop-color="#717273"/>
<stop offset="0.8318" stop-color="#7D7E7E"/>
<stop offset="0.9419" stop-color="#8C8D8D"/>
<stop offset="1" stop-color="#959696"/>
</linearGradient>
<linearGradient id="paint14_linear_2563_29017" x1="63.021" y1="94.9259" x2="68.469" y2="94.9259" gradientUnits="userSpaceOnUse">
<stop stop-color="#E7E3E0"/>
<stop offset="0.0554" stop-color="#D9D5D3"/>
<stop offset="0.1612" stop-color="#B6B3B3"/>
<stop offset="0.264" stop-color="#8F9091"/>
<stop offset="0.277" stop-color="#949495"/>
<stop offset="0.4116" stop-color="#C0C0C0"/>
<stop offset="0.5146" stop-color="#DEDDDE"/>
<stop offset="0.573" stop-color="#E9E9EA"/>
<stop offset="0.6313" stop-color="#E0E1E2"/>
<stop offset="0.7293" stop-color="#C8CACD"/>
<stop offset="0.8545" stop-color="#A1A5AA"/>
<stop offset="0.8764" stop-color="#999EA3"/>
<stop offset="1" stop-color="#B2B2B2"/>
</linearGradient>
<linearGradient id="paint15_linear_2563_29017" x1="66.5204" y1="96.2843" x2="64.8882" y2="93.8756" gradientUnits="userSpaceOnUse">
<stop stop-color="white" stop-opacity="0"/>
<stop offset="0.8739" stop-color="white" stop-opacity="0.4369"/>
<stop offset="1" stop-color="white" stop-opacity="0.5"/>
</linearGradient>
<linearGradient id="paint16_linear_2563_29017" x1="63.0007" y1="93.6256" x2="67.0359" y2="96.3196" gradientUnits="userSpaceOnUse">
<stop stop-color="#8F9091" stop-opacity="0"/>
<stop offset="0.4924" stop-color="#919292" stop-opacity="0.4924"/>
<stop offset="0.6698" stop-color="#999999" stop-opacity="0.6698"/>
<stop offset="0.7962" stop-color="#A7A6A6" stop-opacity="0.7962"/>
<stop offset="0.8981" stop-color="#BBB9B8" stop-opacity="0.8981"/>
<stop offset="0.9847" stop-color="#D5D3D1" stop-opacity="0.9847"/>
<stop offset="1" stop-color="#DBD9D7"/>
</linearGradient>
<linearGradient id="paint17_linear_2563_29017" x1="73.826" y1="94.2784" x2="75.9387" y2="97.2874" gradientUnits="userSpaceOnUse">
<stop stop-color="#959696"/>
<stop offset="0.526" stop-color="#676969"/>
<stop offset="0.6204" stop-color="#6A6B6B"/>
<stop offset="0.7239" stop-color="#717273"/>
<stop offset="0.8318" stop-color="#7D7E7E"/>
<stop offset="0.9419" stop-color="#8C8D8D"/>
<stop offset="1" stop-color="#959696"/>
</linearGradient>
<linearGradient id="paint18_linear_2563_29017" x1="71.7174" y1="94.9259" x2="77.1654" y2="94.9259" gradientUnits="userSpaceOnUse">
<stop stop-color="#E7E3E0"/>
<stop offset="0.0554" stop-color="#D9D5D3"/>
<stop offset="0.1612" stop-color="#B6B3B3"/>
<stop offset="0.264" stop-color="#8F9091"/>
<stop offset="0.277" stop-color="#949495"/>
<stop offset="0.4116" stop-color="#C0C0C0"/>
<stop offset="0.5146" stop-color="#DEDDDE"/>
<stop offset="0.573" stop-color="#E9E9EA"/>
<stop offset="0.6313" stop-color="#E0E1E2"/>
<stop offset="0.7293" stop-color="#C8CACD"/>
<stop offset="0.8545" stop-color="#A1A5AA"/>
<stop offset="0.8764" stop-color="#999EA3"/>
<stop offset="1" stop-color="#B2B2B2"/>
</linearGradient>
<linearGradient id="paint19_linear_2563_29017" x1="75.2168" y1="96.2843" x2="73.5846" y2="93.8756" gradientUnits="userSpaceOnUse">
<stop stop-color="white" stop-opacity="0"/>
<stop offset="0.8739" stop-color="white" stop-opacity="0.4369"/>
<stop offset="1" stop-color="white" stop-opacity="0.5"/>
</linearGradient>
<linearGradient id="paint20_linear_2563_29017" x1="71.6971" y1="93.6256" x2="75.7323" y2="96.3196" gradientUnits="userSpaceOnUse">
<stop stop-color="#8F9091" stop-opacity="0"/>
<stop offset="0.4924" stop-color="#919292" stop-opacity="0.4924"/>
<stop offset="0.6698" stop-color="#999999" stop-opacity="0.6698"/>
<stop offset="0.7962" stop-color="#A7A6A6" stop-opacity="0.7962"/>
<stop offset="0.8981" stop-color="#BBB9B8" stop-opacity="0.8981"/>
<stop offset="0.9847" stop-color="#D5D3D1" stop-opacity="0.9847"/>
<stop offset="1" stop-color="#DBD9D7"/>
</linearGradient>
<radialGradient id="paint21_radial_2563_29017" cx="0" cy="0" r="1" gradientUnits="userSpaceOnUse" gradientTransform="translate(33.0355 88.3389) scale(1.6164 1.6208)">
<stop offset="1.06556e-07" stop-color="#DBD9D8"/>
<stop offset="0.4887" stop-color="#D9D7D6"/>
<stop offset="0.6648" stop-color="#D2D0CF"/>
<stop offset="0.7902" stop-color="#C6C4C3"/>
<stop offset="0.8916" stop-color="#B4B3B3"/>
<stop offset="0.9775" stop-color="#9E9F9F"/>
<stop offset="1" stop-color="#979899"/>
</radialGradient>
<radialGradient id="paint22_radial_2563_29017" cx="0" cy="0" r="1" gradientUnits="userSpaceOnUse" gradientTransform="translate(38.0543 88.336) scale(1.61961 1.62402)">
<stop offset="1.06556e-07" stop-color="#DBD9D8"/>
<stop offset="0.4887" stop-color="#D9D7D6"/>
<stop offset="0.6648" stop-color="#D2D0CF"/>
<stop offset="0.7902" stop-color="#C6C4C3"/>
<stop offset="0.8916" stop-color="#B4B3B3"/>
<stop offset="0.9775" stop-color="#9E9F9F"/>
<stop offset="1" stop-color="#979899"/>
</radialGradient>
<radialGradient id="paint23_radial_2563_29017" cx="0" cy="0" r="1" gradientUnits="userSpaceOnUse" gradientTransform="translate(43.1302 88.3506) scale(1.60891 1.61329)">
<stop offset="1.06556e-07" stop-color="#DBD9D8"/>
<stop offset="0.4887" stop-color="#D9D7D6"/>
<stop offset="0.6648" stop-color="#D2D0CF"/>
<stop offset="0.7902" stop-color="#C6C4C3"/>
<stop offset="0.8916" stop-color="#B4B3B3"/>
<stop offset="0.9775" stop-color="#9E9F9F"/>
<stop offset="1" stop-color="#979899"/>
</radialGradient>
<radialGradient id="paint24_radial_2563_29017" cx="0" cy="0" r="1" gradientUnits="userSpaceOnUse" gradientTransform="translate(48.2568 88.3471) scale(1.60501 1.60938)">
<stop offset="1.06556e-07" stop-color="#DBD9D8"/>
<stop offset="0.4887" stop-color="#D9D7D6"/>
<stop offset="0.6648" stop-color="#D2D0CF"/>
<stop offset="0.7902" stop-color="#C6C4C3"/>
<stop offset="0.8916" stop-color="#B4B3B3"/>
<stop offset="0.9775" stop-color="#9E9F9F"/>
<stop offset="1" stop-color="#979899"/>
</radialGradient>
<radialGradient id="paint25_radial_2563_29017" cx="0" cy="0" r="1" gradientUnits="userSpaceOnUse" gradientTransform="translate(53.284 88.3245) scale(1.6164 1.6208)">
<stop offset="1.06556e-07" stop-color="#DBD9D8"/>
<stop offset="0.4887" stop-color="#D9D7D6"/>
<stop offset="0.6648" stop-color="#D2D0CF"/>
<stop offset="0.7902" stop-color="#C6C4C3"/>
<stop offset="0.8916" stop-color="#B4B3B3"/>
<stop offset="0.9775" stop-color="#9E9F9F"/>
<stop offset="1" stop-color="#979899"/>
</radialGradient>
<radialGradient id="paint26_radial_2563_29017" cx="0" cy="0" r="1" gradientUnits="userSpaceOnUse" gradientTransform="translate(58.3458 88.3361) scale(1.60688 1.61124)">
<stop offset="1.06556e-07" stop-color="#DBD9D8"/>
<stop offset="0.4887" stop-color="#D9D7D6"/>
<stop offset="0.6648" stop-color="#D2D0CF"/>
<stop offset="0.7902" stop-color="#C6C4C3"/>
<stop offset="0.8916" stop-color="#B4B3B3"/>
<stop offset="0.9775" stop-color="#9E9F9F"/>
<stop offset="1" stop-color="#979899"/>
</radialGradient>
<radialGradient id="paint27_radial_2563_29017" cx="0" cy="0" r="1" gradientUnits="userSpaceOnUse" gradientTransform="translate(63.363 88.3102) scale(1.55013 1.55435)">
<stop offset="1.06556e-07" stop-color="#DBD9D8"/>
<stop offset="0.4887" stop-color="#D9D7D6"/>
<stop offset="0.6648" stop-color="#D2D0CF"/>
<stop offset="0.7902" stop-color="#C6C4C3"/>
<stop offset="0.8916" stop-color="#B4B3B3"/>
<stop offset="0.9775" stop-color="#9E9F9F"/>
<stop offset="1" stop-color="#979899"/>
</radialGradient>
<radialGradient id="paint28_radial_2563_29017" cx="0" cy="0" r="1" gradientUnits="userSpaceOnUse" gradientTransform="translate(73.4636 88.3102) scale(1.55013 1.55435)">
<stop offset="1.06556e-07" stop-color="#DBD9D8"/>
<stop offset="0.4887" stop-color="#D9D7D6"/>
<stop offset="0.6648" stop-color="#D2D0CF"/>
<stop offset="0.7902" stop-color="#C6C4C3"/>
<stop offset="0.8916" stop-color="#B4B3B3"/>
<stop offset="0.9775" stop-color="#9E9F9F"/>
<stop offset="1" stop-color="#979899"/>
</radialGradient>
<radialGradient id="paint29_radial_2563_29017" cx="0" cy="0" r="1" gradientUnits="userSpaceOnUse" gradientTransform="translate(68.3994 88.3398) scale(1.67194 1.6765)">
<stop offset="1.06556e-07" stop-color="#DBD9D8"/>
<stop offset="0.4887" stop-color="#D9D7D6"/>
<stop offset="0.6648" stop-color="#D2D0CF"/>
<stop offset="0.7902" stop-color="#C6C4C3"/>
<stop offset="0.8916" stop-color="#B4B3B3"/>
<stop offset="0.9775" stop-color="#9E9F9F"/>
<stop offset="1" stop-color="#979899"/>
</radialGradient>
<radialGradient id="paint30_radial_2563_29017" cx="0" cy="0" r="1" gradientUnits="userSpaceOnUse" gradientTransform="translate(78.1969 88.335) scale(1.55014 1.55435)">
<stop offset="1.06556e-07" stop-color="#DBD9D8"/>
<stop offset="0.4887" stop-color="#D9D7D6"/>
<stop offset="0.6648" stop-color="#D2D0CF"/>
<stop offset="0.7902" stop-color="#C6C4C3"/>
<stop offset="0.8916" stop-color="#B4B3B3"/>
<stop offset="0.9775" stop-color="#9E9F9F"/>
<stop offset="1" stop-color="#979899"/>
</radialGradient>
<radialGradient id="paint31_radial_2563_29017" cx="0" cy="0" r="1" gradientUnits="userSpaceOnUse" gradientTransform="translate(83.8303 88.3193) scale(1.43634 1.44023)">
<stop offset="1.06556e-07" stop-color="#DBD9D8"/>
<stop offset="0.4887" stop-color="#D9D7D6"/>
<stop offset="0.6648" stop-color="#D2D0CF"/>
<stop offset="0.7902" stop-color="#C6C4C3"/>
<stop offset="0.8916" stop-color="#B4B3B3"/>
<stop offset="0.9775" stop-color="#9E9F9F"/>
<stop offset="1" stop-color="#979899"/>
</radialGradient>
<radialGradient id="paint32_radial_2563_29017" cx="0" cy="0" r="1" gradientUnits="userSpaceOnUse" gradientTransform="translate(88.4501 88.3382) scale(1.61726 1.62166)">
<stop offset="1.06556e-07" stop-color="#DBD9D8"/>
<stop offset="0.4887" stop-color="#D9D7D6"/>
<stop offset="0.6648" stop-color="#D2D0CF"/>
<stop offset="0.7902" stop-color="#C6C4C3"/>
<stop offset="0.8916" stop-color="#B4B3B3"/>
<stop offset="0.9775" stop-color="#9E9F9F"/>
<stop offset="1" stop-color="#979899"/>
</radialGradient>
<radialGradient id="paint33_radial_2563_29017" cx="0" cy="0" r="1" gradientUnits="userSpaceOnUse" gradientTransform="translate(93.5129 88.3561) scale(1.60042 1.60479)">
<stop offset="1.06556e-07" stop-color="#DBD9D8"/>
<stop offset="0.4887" stop-color="#D9D7D6"/>
<stop offset="0.6648" stop-color="#D2D0CF"/>
<stop offset="0.7902" stop-color="#C6C4C3"/>
<stop offset="0.8916" stop-color="#B4B3B3"/>
<stop offset="0.9775" stop-color="#9E9F9F"/>
<stop offset="1" stop-color="#979899"/>
</radialGradient>
<radialGradient id="paint34_radial_2563_29017" cx="0" cy="0" r="1" gradientUnits="userSpaceOnUse" gradientTransform="translate(98.5864 88.3372) scale(1.61939 1.62379)">
<stop offset="1.06556e-07" stop-color="#DBD9D8"/>
<stop offset="0.4887" stop-color="#D9D7D6"/>
<stop offset="0.6648" stop-color="#D2D0CF"/>
<stop offset="0.7902" stop-color="#C6C4C3"/>
<stop offset="0.8916" stop-color="#B4B3B3"/>
<stop offset="0.9775" stop-color="#9E9F9F"/>
<stop offset="1" stop-color="#979899"/>
</radialGradient>
<linearGradient id="paint35_linear_2563_29017" x1="34.1779" y1="90.0755" x2="32.0116" y2="86.772" gradientUnits="userSpaceOnUse">
<stop stop-color="#686B6B"/>
<stop offset="0.2526" stop-color="#6A6C6C"/>
<stop offset="0.3436" stop-color="#717373"/>
<stop offset="0.4084" stop-color="#7D7E7E"/>
<stop offset="0.4605" stop-color="#8E8E8E"/>
<stop offset="0.5" stop-color="#A4A2A2"/>
<stop offset="0.5361" stop-color="#A09F9F"/>
<stop offset="0.6588" stop-color="#999A9A"/>
<stop offset="1" stop-color="#979899"/>
</linearGradient>
<linearGradient id="paint36_linear_2563_29017" x1="36.9073" y1="87.0776" x2="38.871" y2="89.212" gradientUnits="userSpaceOnUse">
<stop stop-color="#979899"/>
<stop offset="0.3385" stop-color="#98999A"/>
<stop offset="0.4603" stop-color="#9F9E9E"/>
<stop offset="0.5" stop-color="#A4A1A1"/>
<stop offset="0.5385" stop-color="#8F8E8E"/>
<stop offset="0.5907" stop-color="#7D7E7E"/>
<stop offset="0.6557" stop-color="#717272"/>
<stop offset="0.7468" stop-color="#6A6C6C"/>
<stop offset="1" stop-color="#686B6B"/>
</linearGradient>
<linearGradient id="paint37_linear_2563_29017" x1="41.923" y1="86.678" x2="44.2649" y2="89.5848" gradientUnits="userSpaceOnUse">
<stop stop-color="#979899"/>
<stop offset="0.3385" stop-color="#98999A"/>
<stop offset="0.4603" stop-color="#9F9E9E"/>
<stop offset="0.5" stop-color="#A4A1A1"/>
<stop offset="0.5385" stop-color="#8F8E8E"/>
<stop offset="0.5907" stop-color="#7D7E7E"/>
<stop offset="0.6557" stop-color="#717272"/>
<stop offset="0.7468" stop-color="#6A6C6C"/>
<stop offset="1" stop-color="#686B6B"/>
</linearGradient>
<linearGradient id="paint38_linear_2563_29017" x1="47.2205" y1="87.0453" x2="49.0973" y2="89.8034" gradientUnits="userSpaceOnUse">
<stop stop-color="#979899"/>
<stop offset="0.3385" stop-color="#98999A"/>
<stop offset="0.4603" stop-color="#9F9E9E"/>
<stop offset="0.5" stop-color="#A4A1A1"/>
<stop offset="0.5385" stop-color="#8F8E8E"/>
<stop offset="0.5907" stop-color="#7D7E7E"/>
<stop offset="0.6557" stop-color="#717272"/>
<stop offset="0.7468" stop-color="#6A6C6C"/>
<stop offset="1" stop-color="#686B6B"/>
</linearGradient>
<linearGradient id="paint39_linear_2563_29017" x1="52.4298" y1="87.1164" x2="54.2254" y2="89.6137" gradientUnits="userSpaceOnUse">
<stop offset="1.11884e-07" stop-color="#979899"/>
<stop offset="0.3385" stop-color="#98999A"/>
<stop offset="0.4603" stop-color="#9F9E9E"/>
<stop offset="0.5" stop-color="#A4A1A1"/>
<stop offset="0.5385" stop-color="#8F8E8E"/>
<stop offset="0.5907" stop-color="#7D7E7E"/>
<stop offset="0.6557" stop-color="#717272"/>
<stop offset="0.7468" stop-color="#6A6C6C"/>
<stop offset="1" stop-color="#686B6B"/>
</linearGradient>
<linearGradient id="paint40_linear_2563_29017" x1="57.4089" y1="87.2353" x2="59.3343" y2="89.4791" gradientUnits="userSpaceOnUse">
<stop stop-color="#979899"/>
<stop offset="0.3385" stop-color="#98999A"/>
<stop offset="0.4603" stop-color="#9F9E9E"/>
<stop offset="0.5" stop-color="#A4A1A1"/>
<stop offset="0.5385" stop-color="#8F8E8E"/>
<stop offset="0.5907" stop-color="#7D7E7E"/>
<stop offset="0.6557" stop-color="#717272"/>
<stop offset="0.7468" stop-color="#6A6C6C"/>
<stop offset="1" stop-color="#686B6B"/>
</linearGradient>
<linearGradient id="paint41_linear_2563_29017" x1="62.5589" y1="87.2995" x2="64.2497" y2="89.407" gradientUnits="userSpaceOnUse">
<stop stop-color="#979899"/>
<stop offset="0.3385" stop-color="#98999A"/>
<stop offset="0.4603" stop-color="#9F9E9E"/>
<stop offset="0.5" stop-color="#A4A1A1"/>
<stop offset="0.5385" stop-color="#8F8E8E"/>
<stop offset="0.5907" stop-color="#7D7E7E"/>
<stop offset="0.6557" stop-color="#717272"/>
<stop offset="0.7468" stop-color="#6A6C6C"/>
<stop offset="1" stop-color="#686B6B"/>
</linearGradient>
<linearGradient id="paint42_linear_2563_29017" x1="72.6595" y1="87.2995" x2="74.3503" y2="89.407" gradientUnits="userSpaceOnUse">
<stop stop-color="#979899"/>
<stop offset="0.3385" stop-color="#98999A"/>
<stop offset="0.4603" stop-color="#9F9E9E"/>
<stop offset="0.5" stop-color="#A4A1A1"/>
<stop offset="0.5385" stop-color="#8F8E8E"/>
<stop offset="0.5907" stop-color="#7D7E7E"/>
<stop offset="0.6557" stop-color="#717272"/>
<stop offset="0.7468" stop-color="#6A6C6C"/>
<stop offset="1" stop-color="#686B6B"/>
</linearGradient>
<linearGradient id="paint43_linear_2563_29017" x1="68.0079" y1="87.0864" x2="69.8863" y2="89.6464" gradientUnits="userSpaceOnUse">
<stop stop-color="#979899"/>
<stop offset="0.3385" stop-color="#98999A"/>
<stop offset="0.4603" stop-color="#9F9E9E"/>
<stop offset="0.5" stop-color="#A4A1A1"/>
<stop offset="0.5385" stop-color="#8F8E8E"/>
<stop offset="0.5907" stop-color="#7D7E7E"/>
<stop offset="0.6557" stop-color="#717272"/>
<stop offset="0.7468" stop-color="#6A6C6C"/>
<stop offset="1" stop-color="#686B6B"/>
</linearGradient>
<linearGradient id="paint44_linear_2563_29017" x1="76.8787" y1="87.5855" x2="78.6334" y2="89.7117" gradientUnits="userSpaceOnUse">
<stop stop-color="#979899"/>
<stop offset="0.3385" stop-color="#98999A"/>
<stop offset="0.4603" stop-color="#9F9E9E"/>
<stop offset="0.5" stop-color="#A4A1A1"/>
<stop offset="0.5385" stop-color="#8F8E8E"/>
<stop offset="0.5907" stop-color="#7D7E7E"/>
<stop offset="0.6557" stop-color="#717272"/>
<stop offset="0.7468" stop-color="#6A6C6C"/>
<stop offset="1" stop-color="#686B6B"/>
</linearGradient>
<linearGradient id="paint45_linear_2563_29017" x1="83.8546" y1="88.0167" x2="84.9293" y2="89.4855" gradientUnits="userSpaceOnUse">
<stop offset="2.18439e-07" stop-color="#979899"/>
<stop offset="0.3385" stop-color="#98999A"/>
<stop offset="0.4603" stop-color="#9F9E9E"/>
<stop offset="0.5" stop-color="#A4A1A1"/>
<stop offset="0.5385" stop-color="#8F8E8E"/>
<stop offset="0.5907" stop-color="#7D7E7E"/>
<stop offset="0.6557" stop-color="#717272"/>
<stop offset="0.7468" stop-color="#6A6C6C"/>
<stop offset="1" stop-color="#686B6B"/>
</linearGradient>
<linearGradient id="paint46_linear_2563_29017" x1="87.7261" y1="87.2022" x2="89.2396" y2="89.5419" gradientUnits="userSpaceOnUse">
<stop stop-color="#979899"/>
<stop offset="0.3385" stop-color="#98999A"/>
<stop offset="0.4603" stop-color="#9F9E9E"/>
<stop offset="0.5" stop-color="#A4A1A1"/>
<stop offset="0.5385" stop-color="#8F8E8E"/>
<stop offset="0.5907" stop-color="#7D7E7E"/>
<stop offset="0.6557" stop-color="#717272"/>
<stop offset="0.7468" stop-color="#6A6C6C"/>
<stop offset="1" stop-color="#686B6B"/>
</linearGradient>
<linearGradient id="paint47_linear_2563_29017" x1="92.8332" y1="87.2722" x2="94.3315" y2="89.3702" gradientUnits="userSpaceOnUse">
<stop stop-color="#979899"/>
<stop offset="0.3385" stop-color="#98999A"/>
<stop offset="0.4603" stop-color="#9F9E9E"/>
<stop offset="0.5" stop-color="#A4A1A1"/>
<stop offset="0.5385" stop-color="#8F8E8E"/>
<stop offset="0.5907" stop-color="#7D7E7E"/>
<stop offset="0.6557" stop-color="#717272"/>
<stop offset="0.7468" stop-color="#6A6C6C"/>
<stop offset="1" stop-color="#686B6B"/>
</linearGradient>
<linearGradient id="paint48_linear_2563_29017" x1="97.5144" y1="87.1118" x2="99.4233" y2="89.2779" gradientUnits="userSpaceOnUse">
<stop stop-color="#979899"/>
<stop offset="0.3385" stop-color="#98999A"/>
<stop offset="0.4603" stop-color="#9F9E9E"/>
<stop offset="0.5" stop-color="#A4A1A1"/>
<stop offset="0.5385" stop-color="#8F8E8E"/>
<stop offset="0.5907" stop-color="#7D7E7E"/>
<stop offset="0.6557" stop-color="#717272"/>
<stop offset="0.7468" stop-color="#6A6C6C"/>
<stop offset="1" stop-color="#686B6B"/>
</linearGradient>
</defs>
</svg>
