<svg xmlns="http://www.w3.org/2000/svg" width="244.244" height="88.751" viewBox="0 0 64.623 23.482" xmlns:v="https://vecta.io/nano"><path d="M63.711 23.195c-.364-.145-2.269-.725-4.233-1.288-18.35-5.262-37.516-5.53-55.695-.777-4.281 1.119-4.338 1.129-3.043.508 2.358-1.13 9.737-3.418 13.618-4.223 10.736-2.226 21.944-2.265 32.403-.112 5.338 1.099 11.87 3.214 16.26 5.267 1.745.816 2.199 1.227.689.625zM55.509 16.2c0-.227.192-1 .426-1.717s.357-1.483.273-1.703c-.264-.688-1.371-.441-3.047.678-2.547 1.701-3.264 1.123-2.027-1.634 1.162-2.589.934-2.598-4.181-.174-2.891 1.37-3.502 1.572-4.101 1.356-.557-.201-.689-.402-.629-.96.061-.572-.124-.832-.97-1.366-.575-.363-1.121-.783-1.215-.935-.367-.593-1.795-.27-3.128.708-1.122.824-1.557.985-2.681.992-1.173.008-1.352-.062-1.422-.558-.143-1 1.062-3.091 2.735-4.746 2.752-2.724 5.378-3.528 6.161-1.887.469.983.095 2.141-.73 2.262-.333.049-.734-.041-.892-.198s-.63-.287-1.049-.287c-1.186 0-4.064 2.564-3.506 3.122.092.092 1.048-.305 2.126-.882l1.959-1.049 1.005.963c.553.53 1.375 1.149 1.827 1.376l.822.413 1.38-1.722c1.551-1.936 2.416-2.492 3.053-1.964.585.486.513.749-.521 1.893-1.62 1.793-1.029 2.023 1.942.759 3.113-1.325 4.805-.936 4.805 1.104 0 1.036.026 1.068.728.906 2.113-.489 2.725-.493 3.247-.02.638.578.683 1.877.112 3.244-.718 1.718-2.5 3.162-2.5 2.026zm-52.834-.143c-.464-.134-1.089-.556-1.389-.938C-1.207 11.95 5.827 2.611 12.341.444c3.111-1.035 5.914-.164 5.284 1.643-.314.899-.274.891-1.703.346-1.01-.386-1.234-.386-2.536-.008-3.861 1.122-9.735 7.385-9.736 10.378 0 1.416.69 1.767 3.226 1.641 1.847-.092 2.695-.308 5.315-1.351 1.714-.683 3.292-1.241 3.506-1.241.557 0 .479.894-.125 1.441-.713.646-5.447 2.193-8.153 2.665-2.512.438-3.507.459-4.745.101zm14.564-3.394c-.788-.341-1.417-1.319-1.417-2.204 0-2.686 4.949-6.838 7.709-6.468 2.184.293 2.403 1.434.639 3.32-1.364 1.458-3.168 2.442-4.819 2.628-1.293.146-1.525.349-1.28 1.121.133.418.395.524 1.274.515.609-.006 1.583-.183 2.165-.393 2.228-.803 2.703-.167.647.865-1.306.656-4.036.998-4.918.616zm4.328-5.313c1.318-.756 2.302-1.85 1.664-1.85-1.066 0-3.44 1.584-3.44 2.295 0 .501.226.444 1.777-.446zm4.99 4.35c-.643-.643-.755-1.491-.631-4.751.095-2.478.205-3.116.614-3.568.654-.723 1.877-.63 1.787.135-.034.291-.142 1.809-.239 3.373-.142 2.287-.107 2.844.177 2.844.361 0 3.631-3.229 5.853-5.779 1.26-1.446 2.106-1.724 2.293-.753s-3.828 5.502-6.795 7.679c-1.797 1.318-2.4 1.48-3.06.819z" fill="#fff"/></svg>