<svg width="287" height="86" viewBox="0 0 287 86" fill="none" xmlns="http://www.w3.org/2000/svg">
<g clip-path="url(#clip0_1934_75337)">
<g clip-path="url(#clip1_1934_75337)">
<path fill-rule="evenodd" clip-rule="evenodd" d="M149.946 76.2509L146.136 76.079L144.784 72.719C144.584 72.2209 144.257 72.2209 144.056 72.719L142.705 76.079L138.895 76.2509C138.327 76.2754 138.226 76.57 138.668 76.9032L141.643 79.1514C141.643 79.1514 141.015 81.326 140.64 82.6167C140.492 83.1322 140.755 83.3111 141.231 83.02C142.419 82.287 144.42 81.0524 144.42 81.0524L147.61 83.02C148.085 83.3111 148.349 83.1322 148.201 82.6167L147.198 79.1514L150.172 76.9032C150.614 76.5665 150.51 76.2754 149.946 76.2509Z" fill="#161616"/>
<path d="M144.421 72.3442C144.554 72.3442 144.684 72.4704 144.785 72.7194L146.136 76.0795L149.946 76.2513C150.514 76.2759 150.615 76.5705 150.173 76.9037L147.198 79.1519L148.201 82.6171C148.301 82.9643 148.216 83.1607 148 83.1607C147.896 83.1607 147.766 83.1152 147.61 83.0205L144.421 81.0528C144.421 81.0528 142.419 82.2874 141.231 83.0205C141.079 83.1152 140.945 83.1607 140.841 83.1607C140.626 83.1607 140.54 82.9643 140.64 82.6171C141.015 81.3264 141.643 79.1519 141.643 79.1519L138.669 76.9037C138.227 76.5705 138.327 76.2759 138.895 76.2513L142.705 76.0795L144.057 72.7194C144.153 72.4704 144.287 72.3442 144.421 72.3442ZM144.421 72.3091C144.268 72.3091 144.124 72.4494 144.023 72.7054L142.679 76.0409L138.895 76.2127C138.606 76.2268 138.416 76.3109 138.372 76.4477C138.323 76.5845 138.424 76.7564 138.65 76.9282L141.606 79.1624L140.611 82.6066C140.548 82.8311 140.555 83.0029 140.637 83.1011C140.685 83.1608 140.759 83.1923 140.848 83.1923C140.963 83.1923 141.101 83.1432 141.257 83.045C142.378 82.3541 144.216 81.2212 144.428 81.0879L147.599 83.045C147.755 83.1432 147.893 83.1923 148.008 83.1923C148.097 83.1923 148.171 83.1608 148.219 83.1011C148.301 82.9994 148.309 82.8276 148.245 82.6066L147.25 79.1624L150.206 76.9282C150.433 76.7564 150.533 76.5845 150.485 76.4477C150.436 76.3109 150.251 76.2268 149.961 76.2127L146.177 76.0409L144.833 72.7054C144.714 72.4494 144.573 72.3091 144.421 72.3091Z" fill="#161616"/>
<path fill-rule="evenodd" clip-rule="evenodd" d="M149.946 76.2509L146.136 76.079L144.784 72.719C144.584 72.2209 144.257 72.2209 144.056 72.719L142.705 76.079L138.895 76.2509C138.327 76.2754 138.226 76.57 138.668 76.9032L141.643 79.1514C141.643 79.1514 141.015 81.326 140.64 82.6167C140.492 83.1322 140.755 83.3111 141.231 83.02C142.419 82.287 144.42 81.0524 144.42 81.0524L147.198 79.1514L150.172 76.9032C150.614 76.5665 150.51 76.2754 149.946 76.2509Z" fill="#161616"/>
<path opacity="0.5" fill-rule="evenodd" clip-rule="evenodd" d="M149.946 76.2509L146.136 76.079L144.784 72.719C144.584 72.2209 144.257 72.2209 144.056 72.719L142.705 76.079L138.895 76.2509C138.327 76.2754 138.226 76.57 138.668 76.9032L141.643 79.1514C141.643 79.1514 141.015 81.326 140.64 82.6167C140.492 83.1322 140.755 83.3111 141.231 83.02C142.419 82.287 144.42 81.0524 144.42 81.0524L147.198 79.1514L150.172 76.9032C150.614 76.5665 150.51 76.2754 149.946 76.2509Z" fill="#161616"/>
<path fill-rule="evenodd" clip-rule="evenodd" d="M168.041 75.9201L164.231 75.7482L162.879 72.3882C162.679 71.8901 162.352 71.8901 162.152 72.3882L160.8 75.7482L156.99 75.9201C156.422 75.9446 156.322 76.2392 156.764 76.5724L159.738 78.8206C159.738 78.8206 159.11 80.9952 158.735 82.2859C158.587 82.8014 158.85 82.9803 159.326 82.6892C160.514 81.9562 162.516 80.7216 162.516 80.7216L165.705 82.6892C166.181 82.9803 166.444 82.8014 166.296 82.2859L165.293 78.8206L168.268 76.5724C168.709 76.2357 168.605 75.9446 168.041 75.9201Z" fill="#161616"/>
<path d="M162.516 72.0133C162.649 72.0133 162.779 72.1396 162.88 72.3886L164.231 75.7486L168.041 75.9205C168.609 75.9451 168.71 76.2397 168.268 76.5729L165.293 78.8211L166.296 82.2863C166.396 82.6335 166.311 82.8299 166.095 82.8299C165.991 82.8299 165.862 82.7843 165.706 82.6896L162.516 80.722C162.516 80.722 160.514 81.9566 159.326 82.6896C159.174 82.7843 159.04 82.8299 158.936 82.8299C158.721 82.8299 158.635 82.6335 158.736 82.2863C159.111 80.9956 159.738 78.8211 159.738 78.8211L156.764 76.5729C156.322 76.2397 156.422 75.9451 156.99 75.9205L160.8 75.7486L162.152 72.3886C162.248 72.1396 162.382 72.0133 162.516 72.0133ZM162.516 71.9783C162.364 71.9783 162.219 72.1186 162.118 72.3746L160.774 75.7101L156.99 75.8819C156.701 75.896 156.511 75.9801 156.467 76.1169C156.418 76.2537 156.519 76.4256 156.745 76.5974L159.701 78.8316L158.706 82.2758C158.643 82.5002 158.65 82.6721 158.732 82.7703C158.78 82.8299 158.854 82.8615 158.944 82.8615C159.059 82.8615 159.196 82.8124 159.352 82.7142C160.473 82.0233 162.312 80.8904 162.523 80.7571L165.694 82.7142C165.85 82.8124 165.988 82.8615 166.103 82.8615C166.192 82.8615 166.266 82.8299 166.315 82.7703C166.396 82.6686 166.404 82.4967 166.341 82.2758L165.345 78.8316L168.301 76.5974C168.528 76.4256 168.628 76.2537 168.58 76.1169C168.531 75.9801 168.346 75.896 168.056 75.8819L164.272 75.7101L162.928 72.3746C162.809 72.1186 162.668 71.9783 162.516 71.9783Z" fill="#161616"/>
<path fill-rule="evenodd" clip-rule="evenodd" d="M168.041 75.9201L164.231 75.7482L162.879 72.3882C162.679 71.8901 162.352 71.8901 162.152 72.3882L160.8 75.7482L156.99 75.9201C156.422 75.9446 156.322 76.2392 156.764 76.5724L159.738 78.8206C159.738 78.8206 159.11 80.9952 158.735 82.2859C158.587 82.8014 158.85 82.9803 159.326 82.6892C160.514 81.9562 162.516 80.7216 162.516 80.7216L165.293 78.8206L168.268 76.5724C168.709 76.2357 168.605 75.9446 168.041 75.9201Z" fill="#161616"/>
<path opacity="0.5" fill-rule="evenodd" clip-rule="evenodd" d="M168.041 75.9201L164.231 75.7482L162.879 72.3882C162.679 71.8901 162.352 71.8901 162.152 72.3882L160.8 75.7482L156.99 75.9201C156.422 75.9446 156.322 76.2392 156.764 76.5724L159.738 78.8206C159.738 78.8206 159.11 80.9952 158.735 82.2859C158.587 82.8014 158.85 82.9803 159.326 82.6892C160.514 81.9562 162.516 80.7216 162.516 80.7216L165.293 78.8206L168.268 76.5724C168.709 76.2357 168.605 75.9446 168.041 75.9201Z" fill="#161616"/>
<path fill-rule="evenodd" clip-rule="evenodd" d="M186.975 75.9201L183.165 75.7482L181.813 72.3882C181.613 71.8901 181.286 71.8901 181.086 72.3882L179.734 75.7482L175.924 75.9201C175.356 75.9446 175.256 76.2392 175.698 76.5724L178.672 78.8206C178.672 78.8206 178.044 80.9952 177.669 82.2859C177.521 82.8014 177.784 82.9803 178.26 82.6892C179.448 81.9562 181.45 80.7216 181.45 80.7216L184.639 82.6892C185.115 82.9803 185.378 82.8014 185.23 82.2859L184.227 78.8206L187.202 76.5724C187.643 76.2357 187.539 75.9446 186.975 75.9201Z" fill="#161616"/>
<path d="M181.45 72.0133C181.583 72.0133 181.713 72.1396 181.814 72.3886L183.165 75.7486L186.975 75.9205C187.543 75.9451 187.644 76.2397 187.202 76.5729L184.227 78.8211L185.23 82.2863C185.33 82.6335 185.245 82.8299 185.029 82.8299C184.926 82.8299 184.796 82.7843 184.64 82.6896L181.45 80.722C181.45 80.722 179.448 81.9566 178.26 82.6896C178.108 82.7843 177.974 82.8299 177.87 82.8299C177.655 82.8299 177.569 82.6335 177.67 82.2863C178.045 80.9956 178.672 78.8211 178.672 78.8211L175.698 76.5729C175.256 76.2397 175.356 75.9451 175.924 75.9205L179.734 75.7486L181.086 72.3886C181.182 72.1396 181.316 72.0133 181.45 72.0133ZM181.45 71.9783C181.298 71.9783 181.153 72.1186 181.052 72.3746L179.708 75.7101L175.924 75.8819C175.635 75.896 175.445 75.9801 175.401 76.1169C175.352 76.2537 175.453 76.4256 175.679 76.5974L178.635 78.8316L177.64 82.2758C177.577 82.5002 177.584 82.6721 177.666 82.7703C177.714 82.8299 177.788 82.8615 177.878 82.8615C177.993 82.8615 178.13 82.8124 178.286 82.7142C179.407 82.0233 181.246 80.8904 181.457 80.7571L184.628 82.7142C184.784 82.8124 184.922 82.8615 185.037 82.8615C185.126 82.8615 185.2 82.8299 185.249 82.7703C185.33 82.6686 185.338 82.4967 185.275 82.2758L184.279 78.8316L187.235 76.5974C187.462 76.4256 187.562 76.2537 187.514 76.1169C187.465 75.9801 187.28 75.896 186.99 75.8819L183.206 75.7101L181.862 72.3746C181.743 72.1186 181.602 71.9783 181.45 71.9783Z" fill="#161616"/>
<path fill-rule="evenodd" clip-rule="evenodd" d="M186.975 75.9201L183.165 75.7482L181.813 72.3882C181.613 71.8901 181.286 71.8901 181.086 72.3882L179.734 75.7482L175.924 75.9201C175.356 75.9446 175.256 76.2392 175.698 76.5724L178.672 78.8206C178.672 78.8206 178.044 80.9952 177.669 82.2859C177.521 82.8014 177.784 82.9803 178.26 82.6892C179.448 81.9562 181.45 80.7216 181.45 80.7216L184.227 78.8206L187.202 76.5724C187.643 76.2357 187.539 75.9446 186.975 75.9201Z" fill="#161616"/>
<path opacity="0.5" fill-rule="evenodd" clip-rule="evenodd" d="M186.975 75.9201L183.165 75.7482L181.813 72.3882C181.613 71.8901 181.286 71.8901 181.086 72.3882L179.734 75.7482L175.924 75.9201C175.356 75.9446 175.256 76.2392 175.698 76.5724L178.672 78.8206C178.672 78.8206 178.044 80.9952 177.669 82.2859C177.521 82.8014 177.784 82.9803 178.26 82.6892C179.448 81.9562 181.45 80.7216 181.45 80.7216L184.227 78.8206L187.202 76.5724C187.643 76.2357 187.539 75.9446 186.975 75.9201Z" fill="#161616"/>
<path fill-rule="evenodd" clip-rule="evenodd" d="M132.166 76.2509L128.356 76.079L127.004 72.719C126.804 72.2209 126.477 72.2209 126.277 72.719L124.925 76.079L121.115 76.2509C120.547 76.2754 120.447 76.57 120.889 76.9032L123.863 79.1514C123.863 79.1514 123.235 81.326 122.86 82.6167C122.712 83.1322 122.975 83.3111 123.451 83.02C124.639 82.287 126.641 81.0524 126.641 81.0524L129.83 83.02C130.306 83.3111 130.569 83.1322 130.421 82.6167L129.418 79.1514L132.393 76.9032C132.834 76.5665 132.73 76.2754 132.166 76.2509Z" fill="#161616"/>
<path d="M126.641 72.3442C126.774 72.3442 126.904 72.4704 127.005 72.7194L128.356 76.0795L132.166 76.2513C132.734 76.2759 132.835 76.5705 132.393 76.9037L129.418 79.1519L130.421 82.6171C130.521 82.9643 130.436 83.1607 130.22 83.1607C130.116 83.1607 129.987 83.1152 129.831 83.0205L126.641 81.0528C126.641 81.0528 124.639 82.2874 123.451 83.0205C123.299 83.1152 123.165 83.1607 123.061 83.1607C122.846 83.1607 122.76 82.9643 122.861 82.6171C123.236 81.3264 123.863 79.1519 123.863 79.1519L120.889 76.9037C120.447 76.5705 120.547 76.2759 121.115 76.2513L124.925 76.0795L126.277 72.7194C126.373 72.4704 126.507 72.3442 126.641 72.3442ZM126.641 72.3091C126.489 72.3091 126.344 72.4494 126.243 72.7054L124.899 76.0409L121.115 76.2127C120.826 76.2268 120.636 76.3109 120.592 76.4477C120.543 76.5845 120.644 76.7564 120.87 76.9282L123.826 79.1624L122.831 82.6066C122.768 82.8311 122.775 83.0029 122.857 83.1011C122.905 83.1608 122.979 83.1923 123.069 83.1923C123.184 83.1923 123.321 83.1432 123.477 83.045C124.598 82.3541 126.437 81.2212 126.648 81.0879L129.819 83.045C129.975 83.1432 130.113 83.1923 130.228 83.1923C130.317 83.1923 130.391 83.1608 130.44 83.1011C130.521 82.9994 130.529 82.8276 130.466 82.6066L129.47 79.1624L132.426 76.9282C132.653 76.7564 132.753 76.5845 132.705 76.4477C132.656 76.3109 132.471 76.2268 132.181 76.2127L128.397 76.0409L127.053 72.7054C126.934 72.4494 126.793 72.3091 126.641 72.3091Z" fill="#161616"/>
<path fill-rule="evenodd" clip-rule="evenodd" d="M132.166 76.2509L128.356 76.079L127.004 72.719C126.804 72.2209 126.477 72.2209 126.277 72.719L124.925 76.079L121.115 76.2509C120.547 76.2754 120.447 76.57 120.889 76.9032L123.863 79.1514C123.863 79.1514 123.235 81.326 122.86 82.6167C122.712 83.1322 122.975 83.3111 123.451 83.02C124.639 82.287 126.641 81.0524 126.641 81.0524L129.418 79.1514L132.393 76.9032C132.834 76.5665 132.73 76.2754 132.166 76.2509Z" fill="#161616"/>
<path opacity="0.5" fill-rule="evenodd" clip-rule="evenodd" d="M132.166 76.2509L128.356 76.079L127.004 72.719C126.804 72.2209 126.477 72.2209 126.277 72.719L124.925 76.079L121.115 76.2509C120.547 76.2754 120.447 76.57 120.889 76.9032L123.863 79.1514C123.863 79.1514 123.235 81.326 122.86 82.6167C122.712 83.1322 122.975 83.3111 123.451 83.02C124.639 82.287 126.641 81.0524 126.641 81.0524L129.418 79.1514L132.393 76.9032C132.834 76.5665 132.73 76.2754 132.166 76.2509Z" fill="#161616"/>
<path fill-rule="evenodd" clip-rule="evenodd" d="M113.232 76.2509L109.422 76.079L108.07 72.719C107.87 72.2209 107.543 72.2209 107.343 72.719L105.991 76.079L102.181 76.2509C101.613 76.2754 101.513 76.57 101.955 76.9032L104.929 79.1514C104.929 79.1514 104.301 81.326 103.926 82.6167C103.778 83.1322 104.041 83.3111 104.517 83.02C105.705 82.287 107.707 81.0524 107.707 81.0524L110.896 83.02C111.372 83.3111 111.635 83.1322 111.487 82.6167L110.484 79.1514L113.459 76.9032C113.9 76.5665 113.796 76.2754 113.232 76.2509Z" fill="#161616"/>
<path d="M107.707 72.3442C107.84 72.3442 107.97 72.4704 108.071 72.7194L109.422 76.0795L113.232 76.2513C113.8 76.2759 113.901 76.5705 113.459 76.9037L110.484 79.1519L111.487 82.6171C111.587 82.9643 111.502 83.1607 111.286 83.1607C111.182 83.1607 111.052 83.1152 110.897 83.0205L107.707 81.0528C107.707 81.0528 105.705 82.2874 104.517 83.0205C104.365 83.1152 104.231 83.1607 104.127 83.1607C103.912 83.1607 103.826 82.9643 103.927 82.6171C104.302 81.3264 104.929 79.1519 104.929 79.1519L101.955 76.9037C101.513 76.5705 101.613 76.2759 102.181 76.2513L105.991 76.0795L107.343 72.7194C107.439 72.4704 107.573 72.3442 107.707 72.3442ZM107.707 72.3091C107.554 72.3091 107.41 72.4494 107.309 72.7054L105.965 76.0409L102.181 76.2127C101.892 76.2268 101.702 76.3109 101.658 76.4477C101.609 76.5845 101.71 76.7564 101.936 76.9282L104.892 79.1624L103.897 82.6066C103.834 82.8311 103.841 83.0029 103.923 83.1011C103.971 83.1608 104.045 83.1923 104.134 83.1923C104.25 83.1923 104.387 83.1432 104.543 83.045C105.664 82.3541 107.503 81.2212 107.714 81.0879L110.885 83.045C111.041 83.1432 111.179 83.1923 111.294 83.1923C111.383 83.1923 111.457 83.1608 111.506 83.1011C111.587 82.9994 111.595 82.8276 111.532 82.6066L110.536 79.1624L113.492 76.9282C113.719 76.7564 113.819 76.5845 113.771 76.4477C113.722 76.3109 113.537 76.2268 113.247 76.2127L109.463 76.0409L108.119 72.7054C108 72.4494 107.859 72.3091 107.707 72.3091Z" fill="#161616"/>
<path fill-rule="evenodd" clip-rule="evenodd" d="M113.232 76.2509L109.422 76.079L108.07 72.719C107.87 72.2209 107.543 72.2209 107.343 72.719L105.991 76.079L102.181 76.2509C101.613 76.2754 101.513 76.57 101.955 76.9032L104.929 79.1514C104.929 79.1514 104.301 81.326 103.926 82.6167C103.778 83.1322 104.041 83.3111 104.517 83.02C105.705 82.287 107.707 81.0524 107.707 81.0524L110.484 79.1514L113.459 76.9032C113.9 76.5665 113.796 76.2754 113.232 76.2509Z" fill="#161616"/>
<path opacity="0.5" fill-rule="evenodd" clip-rule="evenodd" d="M113.232 76.2509L109.422 76.079L108.07 72.719C107.87 72.2209 107.543 72.2209 107.343 72.719L105.991 76.079L102.181 76.2509C101.613 76.2754 101.513 76.57 101.955 76.9032L104.929 79.1514C104.929 79.1514 104.301 81.326 103.926 82.6167C103.778 83.1322 104.041 83.3111 104.517 83.02C105.705 82.287 107.707 81.0524 107.707 81.0524L110.484 79.1514L113.459 76.9032C113.9 76.5665 113.796 76.2754 113.232 76.2509Z" fill="#161616"/>
<path d="M35.4521 22.4451L45.1328 51.6646H16.941L22.9492 34.4717H28.9871L25.4446 46.3089H36.9226L28.5489 22.4451H35.4521Z" fill="#0F2335"/>
<path d="M125.074 22.4453L134.755 51.6648H106.559L112.567 34.4719H118.605L115.063 46.3091H126.541L118.171 22.4453H125.074Z" fill="#0F2335"/>
<path d="M265.361 22.4453L275.042 51.6648H246.846L252.854 34.4719H258.892L255.35 46.3091H266.828L258.454 22.4453H265.361Z" fill="#0F2335"/>
<path d="M49.2955 22.4453L62.8456 22.4348C64.8916 22.4348 66.3287 22.6488 67.866 23.003C69.2623 23.3327 69.8378 23.7255 70.9184 24.7391C71.7428 25.4967 72.2478 26.1701 72.634 27.3135C73.0239 28.4569 73.2318 29.8563 73.2318 31.4802V51.6613H66.351V31.5363C66.351 30.5367 65.7829 29.4144 65.3892 28.9549C64.8991 28.4113 63.566 27.8221 62.0621 27.8221H56.1504V51.6613H49.2955V22.4453Z" fill="#0F2335"/>
<path d="M78.4379 22.4453L91.9842 22.4348C94.0302 22.4348 95.4673 22.6488 97.0047 23.003C98.4009 23.3327 98.9764 23.7255 100.057 24.7391C100.881 25.4967 101.386 26.1701 101.773 27.3135C102.163 28.4569 102.37 29.8563 102.37 31.4802V51.6613H95.4896V31.5363C95.4896 30.5367 94.9215 29.4144 94.5278 28.9549C94.0377 28.4113 92.7046 27.8221 91.2007 27.8221H85.289V51.6613H78.4341V22.4453H78.4379Z" fill="#0F2335"/>
<path d="M218.547 22.4558L232.093 22.4453C234.139 22.4453 235.576 22.6593 237.113 23.0135C238.51 23.3432 239.085 23.736 240.166 24.7496C240.99 25.5072 241.495 26.1806 241.881 27.324C242.271 28.4674 242.479 29.8668 242.479 31.4907V51.6718H235.598V31.5468C235.598 30.5472 235.03 29.4249 234.637 28.9654C234.146 28.4218 232.813 27.8326 231.309 27.8326H225.398V51.6718H218.543V22.4558H218.547Z" fill="#0F2335"/>
<path d="M138.308 22.4453L147.919 22.4348C150.265 22.4348 152.181 22.5506 153.607 22.9644C155.033 23.3783 156.192 24.0692 157.254 25.0688C158.127 25.8965 158.762 26.9733 159.211 28.1167C159.656 29.246 159.779 30.3438 159.779 31.5293C159.779 32.7148 159.471 33.6968 158.995 34.7806C158.52 35.8679 157.833 36.6816 156.946 37.5233C155.869 38.5229 154.848 39.0104 153.526 39.3997C152.207 39.7855 150.455 39.8627 148.346 39.8627H145.189V51.6578H138.305V34.4719H148.409C149.233 34.4719 149.616 34.3211 150.076 34.251C150.536 34.1808 151.134 33.795 151.402 33.6091C151.966 33.0059 152.575 31.9853 152.575 31.2557C152.575 30.4982 151.996 29.004 151.402 28.6743C150.808 28.3447 149.801 27.8221 148.405 27.8221H138.301V22.4453H138.308Z" fill="#0F2335"/>
<path d="M187.993 22.4558V51.6648H173.392C171.443 51.6648 169.827 51.4333 168.524 50.9809C167.637 50.6687 167.128 50.2759 166.352 49.592C165.591 48.9186 165.223 48.2592 164.777 47.3403C164.168 46.0882 164.038 44.3625 164.038 41.9635V22.4558H170.908V41.1814C170.908 42.1249 170.941 43.2507 171.068 43.6856C171.123 43.882 171.265 44.2959 171.484 44.6642C171.751 45.1131 172.211 45.4709 172.401 45.6182C172.672 45.8321 173.233 46.0496 173.674 46.1337C174.116 46.2179 174.9 46.3126 175.661 46.3126H181.124V22.4558H187.993Z" fill="#0F2335"/>
<path d="M192.746 22.4664L202.698 22.4453C204.681 22.4453 206.612 22.6277 208.045 22.9679C208.996 23.1959 209.932 23.7044 210.7 24.22C211.506 24.7601 211.963 25.2582 212.49 25.9561C213.017 26.6541 213.355 27.2819 213.697 28.1552C214.039 29.0286 214.25 30.2947 214.25 31.2522C214.25 33.0935 213.574 34.4824 213.248 35.1909C212.709 36.1905 211.948 37.0463 211.703 37.2497C211.213 37.6601 210.229 38.4738 209.679 38.7579C209.776 38.814 210.065 38.9929 210.325 39.1577C210.526 39.2875 210.793 39.5435 210.964 39.7119C211.395 40.1327 211.335 40.1222 211.781 40.7079C211.863 40.8167 212.839 42.3003 212.839 44.096L212.817 51.6683H205.962V44.6432C205.892 43.2788 205.416 42.2406 205.353 42.1705C205.279 42.0828 205.067 41.2831 203.686 40.5536C203.515 40.4624 201.896 39.8206 200.648 39.8627L192.746 39.8732V34.4824L202.769 34.4719C203.214 34.4719 204.013 34.4053 204.666 34.2159C205.264 34.0405 205.721 33.7073 205.892 33.5811C206.248 33.3145 206.489 32.9462 206.619 32.7253C207.058 32.0799 207.087 31.1119 206.998 30.5683C206.816 29.495 206.397 29.0426 205.892 28.6743C205.238 28.1973 204.157 27.9062 202.769 27.8361L192.746 27.8326V22.4664Z" fill="#0F2335"/>
<path d="M72.8271 65.8829C72.8419 65.7181 72.9088 65.6549 73.0833 65.6549H73.8074C73.9671 65.6549 74.0488 65.7181 74.0339 65.8829C74.0339 65.9846 74.0191 66.2898 73.9931 66.5563C73.8594 67.8996 73.6032 67.9382 72.582 67.9908C71.8319 68.0154 71.5868 68.0154 70.6473 67.9908C69.615 67.9417 69.3737 67.9031 69.2363 66.5563C69.1137 65.2867 69.1026 62.7403 69.2363 61.3058C69.3699 59.9625 69.6262 59.924 70.6473 59.8854C71.3603 59.8468 71.6685 59.8468 72.582 59.8854C73.6143 59.924 73.8557 59.9871 73.9931 61.3058L74.0451 62.0038C74.0599 62.1687 73.9782 62.2318 73.8186 62.2318H73.0796C72.9051 62.2318 72.8382 62.1687 72.8234 62.0038C72.8234 61.9266 72.8085 61.6496 72.7825 61.4076C72.7565 60.9621 72.7008 60.913 72.5152 60.913C71.7094 60.8885 71.442 60.8885 70.6882 60.913C70.5285 60.913 70.4728 60.9902 70.4468 61.3935C70.3243 62.8 70.3131 65.0832 70.4468 66.4546C70.4728 66.9 70.5285 66.9491 70.703 66.9632C71.5497 67.0017 71.7354 67.0017 72.5152 66.9632C72.7045 66.9491 72.7565 66.9141 72.7825 66.4686L72.8271 65.8829Z" fill="#161616"/>
<path d="M83.7369 59.8683C84.7692 59.9174 85.0106 59.9559 85.148 61.3028C85.2705 62.5724 85.2817 65.1187 85.148 66.5532C85.0143 67.8965 84.7581 67.9351 83.7369 67.9737C83.0239 68.0123 82.7157 68.0123 81.8023 67.9737C80.7699 67.9351 80.5286 67.872 80.3912 66.5532C80.2686 65.2976 80.2575 62.7232 80.3912 61.3028C80.5249 59.9595 80.7811 59.9209 81.8023 59.8683C82.5561 59.8437 82.7974 59.8437 83.7369 59.8683ZM82.8383 66.9706C83.1205 66.9706 83.347 66.9566 83.6961 66.946C83.8557 66.946 83.9114 66.8689 83.9374 66.4655C84.06 65.0591 84.0711 62.7758 83.9374 61.4045C83.9114 60.959 83.8557 60.9099 83.6812 60.8959C83.1985 60.8819 82.9682 60.8819 82.7009 60.8819C82.4335 60.8819 82.2441 60.8819 81.8691 60.8959C81.6797 60.9099 81.6277 60.945 81.6017 61.3904C81.4792 62.7864 81.4681 65.0942 81.6017 66.4515C81.6277 66.8969 81.6834 66.946 81.8691 66.946C82.3147 66.9601 82.5821 66.9706 82.8383 66.9706Z" fill="#161616"/>
<path d="M95.3413 60.1491C95.3413 59.9843 95.4229 59.9211 95.5826 59.9211H96.3067C96.4813 59.9211 96.5481 59.9843 96.5481 60.1491V63.916C96.5481 64.8805 96.5221 65.8415 96.4553 66.5395C96.3216 67.8828 96.0654 67.9213 95.0442 67.974C94.2941 67.9985 94.049 67.9985 93.1095 67.974C92.0772 67.9249 91.8358 67.8863 91.6984 66.5395C91.6316 65.9046 91.5908 64.9156 91.5908 63.916V60.1491C91.5908 59.9843 91.6725 59.9211 91.8321 59.9211H92.5562C92.7308 59.9211 92.7976 59.9843 92.7976 60.1491V63.916C92.7976 64.8419 92.8236 65.7538 92.9053 66.4378C92.9313 66.8832 92.987 66.9323 93.1615 66.9463C93.6442 66.9603 93.8745 66.9603 94.1418 66.9603C94.4092 66.9603 94.5986 66.9603 94.9736 66.9463C95.163 66.9323 95.215 66.8972 95.241 66.4518C95.3078 65.7538 95.3338 64.8419 95.3338 63.916V60.1491H95.3413Z" fill="#161616"/>
<path d="M107.038 67.9423C106.864 67.9423 106.771 67.8932 106.704 67.7389L105.508 65.2908C105.427 65.1505 105.334 65.0874 105.174 65.0874H104.287C104.205 65.0874 104.164 65.1259 104.164 65.2031V67.7143C104.164 67.8792 104.097 67.9423 103.923 67.9423H103.199C103.024 67.9423 102.957 67.8792 102.957 67.7143V60.1806C102.957 60.0158 103.024 59.9526 103.199 59.9526H106.34C107.198 59.9772 107.644 60.0158 107.788 61.3731C107.87 62.1096 107.881 62.769 107.788 63.6669C107.666 64.9365 107.332 64.8839 106.823 65.0347C106.715 65.1224 106.741 65.1505 106.771 65.2768L107.978 67.7354C108.045 67.8862 108.004 67.9388 107.844 67.9388H107.038V67.9423ZM106.273 64.0632C106.422 64.0632 106.515 64.0492 106.57 63.6318C106.719 62.541 106.637 61.9588 106.556 61.4257C106.515 61.096 106.474 60.9803 106.273 60.9803H104.287C104.22 60.9803 104.164 61.0048 104.164 61.0574V63.9861C104.164 64.0246 104.216 64.0632 104.287 64.0632H106.273Z" fill="#161616"/>
<path d="M117.907 65.8519C117.922 65.687 117.989 65.6239 118.164 65.6239H118.888C119.047 65.6239 119.129 65.687 119.114 65.8519C119.114 65.9536 119.099 66.2587 119.073 66.5253C118.94 67.8686 118.683 67.9072 117.662 67.9598C116.912 67.9843 116.667 67.9843 115.728 67.9598C114.695 67.9107 114.454 67.8721 114.316 66.5253C114.194 65.2556 114.183 62.7093 114.316 61.2748C114.45 59.9315 114.706 59.893 115.728 59.8544C116.441 59.8158 116.749 59.8158 117.662 59.8544C118.695 59.893 118.936 59.9561 119.073 61.2748L119.125 61.9728C119.14 62.1376 119.058 62.2008 118.899 62.2008H118.16C117.985 62.2008 117.918 62.1376 117.904 61.9728C117.904 61.8956 117.889 61.6186 117.863 61.3766C117.837 60.9311 117.781 60.882 117.595 60.882C116.79 60.8575 116.522 60.8575 115.768 60.882C115.609 60.882 115.553 60.9592 115.527 61.3625C115.404 62.769 115.393 65.0522 115.527 66.4236C115.553 66.869 115.609 66.9181 115.783 66.9321C116.63 66.9707 116.816 66.9707 117.595 66.9321C117.785 66.9181 117.837 66.883 117.863 66.4376L117.907 65.8519Z" fill="#161616"/>
<path d="M129.515 67.9213C129.341 67.9213 129.274 67.8582 129.274 67.6933V64.5613C129.274 64.4736 129.233 64.4456 129.151 64.4456H126.734C126.652 64.4456 126.611 64.4701 126.611 64.5613V67.6933C126.611 67.8582 126.545 67.9213 126.37 67.9213H125.646C125.471 67.9213 125.405 67.8582 125.405 67.6933V60.1596C125.405 59.9948 125.471 59.9316 125.646 59.9316H126.37C126.545 59.9316 126.611 59.9948 126.611 60.1596V63.3057C126.611 63.3828 126.652 63.4214 126.734 63.4214H129.151C129.233 63.4214 129.274 63.3828 129.274 63.3057V60.1596C129.274 59.9948 129.341 59.9316 129.515 59.9316H130.239C130.414 59.9316 130.481 59.9948 130.481 60.1596V67.6933C130.481 67.8582 130.414 67.9213 130.239 67.9213H129.515Z" fill="#161616"/>
<path d="M137.183 67.8652C137.009 67.8652 136.942 67.802 136.942 67.6372V60.1035C136.942 59.9386 137.009 59.8755 137.183 59.8755H141.049C141.223 59.8755 141.29 59.9386 141.29 60.1035V60.6752C141.29 60.84 141.223 60.9031 141.049 60.9031H138.271C138.19 60.9031 138.149 60.9417 138.149 61.0189V63.2495C138.149 63.3267 138.19 63.3653 138.271 63.3653H140.447C140.622 63.3653 140.689 63.4284 140.689 63.5932V64.1649C140.689 64.3158 140.622 64.3929 140.447 64.3929H138.271C138.19 64.3929 138.149 64.4175 138.149 64.5087V66.7288C138.149 66.806 138.19 66.8445 138.271 66.8445H141.049C141.223 66.8445 141.29 66.9077 141.29 67.0725V67.6442C141.29 67.8091 141.223 67.8722 141.049 67.8722H137.183V67.8652Z" fill="#161616"/>
<path d="M159.671 67.8652C159.497 67.8652 159.43 67.802 159.43 67.6372V60.1035C159.43 59.9386 159.497 59.8755 159.671 59.8755H163.537C163.711 59.8755 163.778 59.9386 163.778 60.1035V60.6752C163.778 60.84 163.711 60.9031 163.537 60.9031H160.759C160.678 60.9031 160.637 60.9417 160.637 61.0189V63.2495C160.637 63.3267 160.678 63.3653 160.759 63.3653H162.935C163.11 63.3653 163.177 63.4284 163.177 63.5932V64.1649C163.177 64.3158 163.11 64.3929 162.935 64.3929H160.759C160.678 64.3929 160.637 64.4175 160.637 64.5087V66.7288C160.637 66.806 160.678 66.8445 160.759 66.8445H163.537C163.711 66.8445 163.778 66.9077 163.778 67.0725V67.6442C163.778 67.8091 163.711 67.8722 163.537 67.8722H159.671V67.8652Z" fill="#161616"/>
<path d="M149.979 67.9283C149.805 67.9283 149.712 67.8652 149.671 67.7144L147.428 60.1561C147.388 60.0053 147.443 59.9421 147.603 59.9421H148.394C148.568 59.9421 148.661 60.0053 148.691 60.1561L149.79 64.0983C150.046 65.0243 150.206 65.8239 150.273 66.5464C150.314 66.7113 150.34 66.7113 150.381 66.5464C150.447 65.8239 150.607 65.0243 150.863 64.0983L151.951 60.1561C151.977 60.0053 152.074 59.9421 152.248 59.9421H153.039C153.214 59.9421 153.266 60.0053 153.229 60.1561L150.986 67.7144C150.945 67.8652 150.852 67.9283 150.678 67.9283H149.979Z" fill="#161616"/>
<path d="M170.206 67.9177C170.032 67.9177 169.965 67.8545 169.965 67.6897V60.156C169.965 59.9911 170.032 59.928 170.206 59.928H170.93C171.105 59.928 171.172 59.9911 171.172 60.156V66.7743C171.172 66.8514 171.213 66.89 171.294 66.89H174.072C174.246 66.89 174.313 66.9531 174.313 67.118V67.6897C174.313 67.8545 174.246 67.9177 174.072 67.9177H170.206Z" fill="#161616"/>
<path d="M184.855 67.9142C184.696 67.9142 184.614 67.8511 184.614 67.6862V61.1942L183.89 61.3099C183.73 61.3345 183.649 61.2854 183.623 61.1205L183.556 60.6751C183.515 60.5102 183.582 60.4471 183.756 60.4085L185.583 59.8754C185.758 59.8509 185.825 59.9385 185.825 60.1034V67.6862C185.825 67.8511 185.758 67.9142 185.583 67.9142H184.855Z" fill="#161616"/>
<path d="M197.343 65.1822C197.369 65.4873 197.41 65.9924 197.343 66.5781C197.221 67.8092 196.98 67.9845 195.932 68.0126C195.691 68.0266 194.9 68.0371 193.998 67.9986C192.951 67.974 192.709 67.7951 192.587 66.5641C192.52 65.9818 192.561 65.4733 192.587 65.1681C192.694 64.1651 193.069 64.1019 193.808 63.9371C193.069 63.7582 192.668 63.7091 192.561 62.6955C192.52 62.2641 192.535 61.7064 192.575 61.2996C192.683 60.044 192.951 59.9037 193.987 59.8651C194.213 59.8511 195.019 59.816 195.947 59.8511C196.968 59.8896 197.251 60.0299 197.358 61.2855C197.399 61.7029 197.41 62.2501 197.373 62.6815C197.265 63.7196 196.835 63.7582 196.07 63.9511C196.82 64.1405 197.236 64.1545 197.343 65.1822ZM194.926 63.4952C195.368 63.3058 195.784 63.1269 195.906 63.0778C196.029 63.0392 196.107 63.0006 196.163 62.5833C196.215 62.1659 196.177 61.6328 196.148 61.3908C196.107 60.9453 196.066 60.9103 195.851 60.9103C195.624 60.8962 194.362 60.8857 194.024 60.9103C193.864 60.9103 193.808 60.9594 193.782 61.4048C193.756 61.6468 193.715 62.1799 193.767 62.5973C193.808 63.0147 193.901 63.0532 194.024 63.0918L194.926 63.4952ZM194.042 64.7753C193.92 64.8139 193.827 64.9016 193.786 65.2699C193.734 65.6872 193.771 66.2203 193.801 66.4624C193.827 66.9078 193.883 66.9569 194.057 66.9709C194.284 66.9849 195.561 66.9955 195.895 66.9709C196.055 66.9569 196.096 66.9218 196.137 66.4764C196.163 66.2344 196.203 65.7013 196.151 65.2839C196.099 64.9156 196.003 64.8525 195.895 64.7894C195.639 64.6245 195.372 64.4983 194.971 64.4071C194.577 64.4983 194.124 64.7368 194.042 64.7753Z" fill="#161616"/>
<path d="M204.77 65.652C204.945 65.652 205.026 65.7151 205.026 65.88C205.026 65.9291 205.052 66.1956 205.078 66.4517C205.119 66.9076 205.145 66.9322 205.334 66.9602C205.765 66.9988 206.838 66.9848 207.147 66.9602C207.347 66.9357 207.388 66.8725 207.414 66.4657C207.455 66.0203 207.455 65.0593 207.414 64.6138C207.388 64.1965 207.332 64.1333 207.147 64.1193C206.422 64.0807 206.3 64.0807 205.453 64.1193C205.145 64.1333 205.089 64.235 205.089 64.4735C205.089 64.6384 205.037 64.7015 204.863 64.7015H204.139C203.964 64.7015 203.897 64.6384 203.897 64.4735C203.871 63.4599 203.912 62.2288 203.99 61.3029L204.083 60.163C204.098 59.9982 204.165 59.9351 204.339 59.9351H208.301C208.476 59.9351 208.543 59.9982 208.543 60.163V60.7347C208.543 60.8996 208.476 60.9627 208.301 60.9627H205.294C205.212 60.9627 205.171 61.0013 205.16 61.0784L205.134 61.3941C205.108 61.9904 205.093 62.6638 205.093 63.5862C205.308 63.2425 205.565 63.1302 206.125 63.0916C206.218 63.0916 206.798 63.0671 207.213 63.0776C208.261 63.0916 208.517 63.3442 208.625 64.5226C208.677 65.0312 208.677 66.0448 208.625 66.5499C208.491 67.9212 208.235 67.9318 207.213 67.9703C207.132 67.9703 206.259 68.0335 205.279 67.9844C204.258 67.9458 204.005 67.8686 203.868 66.5499C203.842 66.2973 203.816 65.9922 203.816 65.8765C203.816 65.7116 203.883 65.6485 204.042 65.6485H204.77V65.652Z" fill="#161616"/>
<path d="M219.765 61.7061C219.887 61.5939 219.924 61.6044 219.924 61.7692C220.032 62.8214 220.032 65.2064 219.91 66.5497C219.776 67.893 219.52 67.9316 218.498 67.9842C217.748 68.0088 217.507 68.0088 216.564 67.9842C215.531 67.9351 215.286 67.8965 215.153 66.5497C215.03 65.2801 215.019 62.7337 215.153 61.2993C215.286 59.9559 215.543 59.9174 216.564 59.8788C217.277 59.8402 217.585 59.8402 218.498 59.8788C219.412 59.9174 219.679 60.0051 219.828 60.717C219.88 60.9836 219.813 60.959 219.694 61.0713L218.914 61.8183C218.792 61.9341 218.74 61.906 218.725 61.7412L218.699 61.3975C218.673 60.952 218.617 60.9029 218.432 60.9029C217.99 60.8889 217.719 60.8784 217.466 60.8784C217.184 60.8784 216.957 60.8924 216.608 60.9029C216.449 60.9029 216.393 60.9801 216.367 61.3834C216.244 62.7899 216.233 65.0731 216.367 66.4445C216.393 66.8864 216.449 66.939 216.623 66.9531C217.106 66.9671 217.336 66.9671 217.604 66.9671C217.871 66.9671 218.06 66.9671 218.435 66.9531C218.625 66.939 218.677 66.9039 218.703 66.4585C218.796 65.4309 218.892 63.8841 218.784 62.846C218.77 62.6952 218.825 62.5794 218.944 62.4637L219.765 61.7061Z" fill="#161616"/>
</g>
</g>
<defs>
<clipPath id="clip0_1934_75337">
<rect width="287" height="86" fill="#161616"/>
</clipPath>
<clipPath id="clip1_1934_75337">
<rect width="258.101" height="60.7609" fill="#161616" transform="translate(16.941 22.4348)"/>
</clipPath>
</defs>
</svg>
