<svg width="260" height="62" viewBox="0 0 260 62" fill="none" xmlns="http://www.w3.org/2000/svg">
<g clip-path="url(#clip0_3067_8532)">
<path fill-rule="evenodd" clip-rule="evenodd" d="M133.946 54.2509L130.137 54.079L128.785 50.719C128.584 50.2209 128.258 50.2209 128.057 50.719L126.705 54.079L122.895 54.2509C122.327 54.2754 122.227 54.57 122.669 54.9032L125.643 57.1514C125.643 57.1514 125.016 59.326 124.641 60.6167C124.492 61.1322 124.756 61.3111 125.231 61.02C126.419 60.287 128.421 59.0524 128.421 59.0524L131.611 61.02C132.086 61.3111 132.35 61.1322 132.201 60.6167L131.199 57.1514L134.173 54.9032C134.615 54.5665 134.511 54.2754 133.946 54.2509Z" fill="white"/>
<path d="M128.421 50.3442C128.555 50.3442 128.685 50.4704 128.785 50.7194L130.137 54.0795L133.947 54.2513C134.515 54.2759 134.615 54.5705 134.173 54.9037L131.199 57.1519L132.201 60.6171C132.302 60.9643 132.216 61.1607 132.001 61.1607C131.897 61.1607 131.767 61.1152 131.611 61.0205L128.421 59.0528C128.421 59.0528 126.42 60.2874 125.231 61.0205C125.079 61.1152 124.946 61.1607 124.842 61.1607C124.626 61.1607 124.541 60.9643 124.641 60.6171C125.016 59.3264 125.644 57.1519 125.644 57.1519L122.669 54.9037C122.227 54.5705 122.328 54.2759 122.896 54.2513L126.706 54.0795L128.057 50.7194C128.154 50.4704 128.288 50.3442 128.421 50.3442ZM128.421 50.3091C128.269 50.3091 128.124 50.4494 128.024 50.7054L126.68 54.0409L122.896 54.2127C122.606 54.2268 122.417 54.3109 122.372 54.4477C122.324 54.5845 122.424 54.7564 122.651 54.9282L125.607 57.1624L124.611 60.6066C124.548 60.8311 124.556 61.0029 124.637 61.1011C124.686 61.1608 124.76 61.1923 124.849 61.1923C124.964 61.1923 125.102 61.1432 125.257 61.045C126.379 60.3541 128.217 59.2212 128.429 59.0879L131.6 61.045C131.756 61.1432 131.893 61.1923 132.008 61.1923C132.097 61.1923 132.172 61.1608 132.22 61.1011C132.302 60.9994 132.309 60.8276 132.246 60.6066L131.251 57.1624L134.207 54.9282C134.433 54.7564 134.533 54.5845 134.485 54.4477C134.437 54.3109 134.251 54.2268 133.962 54.2127L130.178 54.0409L128.833 50.7054C128.715 50.4494 128.574 50.3091 128.421 50.3091Z" fill="white"/>
<path fill-rule="evenodd" clip-rule="evenodd" d="M133.946 54.2509L130.137 54.079L128.785 50.719C128.584 50.2209 128.258 50.2209 128.057 50.719L126.705 54.079L122.895 54.2509C122.327 54.2754 122.227 54.57 122.669 54.9032L125.643 57.1514C125.643 57.1514 125.016 59.326 124.641 60.6167C124.492 61.1322 124.756 61.3111 125.231 61.02C126.419 60.287 128.421 59.0524 128.421 59.0524L131.199 57.1514L134.173 54.9032C134.615 54.5665 134.511 54.2754 133.946 54.2509Z" fill="white"/>
<path opacity="0.5" fill-rule="evenodd" clip-rule="evenodd" d="M133.946 54.2509L130.137 54.079L128.785 50.719C128.584 50.2209 128.258 50.2209 128.057 50.719L126.705 54.079L122.895 54.2509C122.327 54.2754 122.227 54.57 122.669 54.9032L125.643 57.1514C125.643 57.1514 125.016 59.326 124.641 60.6167C124.492 61.1322 124.756 61.3111 125.231 61.02C126.419 60.287 128.421 59.0524 128.421 59.0524L131.199 57.1514L134.173 54.9032C134.615 54.5665 134.511 54.2754 133.946 54.2509Z" fill="white"/>
<path fill-rule="evenodd" clip-rule="evenodd" d="M152.041 53.9201L148.231 53.7482L146.88 50.3882C146.679 49.8901 146.352 49.8901 146.152 50.3882L144.8 53.7482L140.99 53.9201C140.422 53.9446 140.322 54.2392 140.764 54.5724L143.738 56.8206C143.738 56.8206 143.111 58.9952 142.735 60.2859C142.587 60.8014 142.851 60.9803 143.326 60.6892C144.514 59.9562 146.516 58.7216 146.516 58.7216L149.705 60.6892C150.181 60.9803 150.444 60.8014 150.296 60.2859L149.293 56.8206L152.268 54.5724C152.71 54.2357 152.606 53.9446 152.041 53.9201Z" fill="white"/>
<path d="M146.516 50.0133C146.65 50.0133 146.78 50.1396 146.88 50.3886L148.232 53.7486L152.041 53.9205C152.61 53.9451 152.71 54.2397 152.268 54.5729L149.294 56.8211L150.296 60.2863C150.396 60.6335 150.311 60.8299 150.096 60.8299C149.992 60.8299 149.862 60.7843 149.706 60.6896L146.516 58.722C146.516 58.722 144.515 59.9566 143.326 60.6896C143.174 60.7843 143.04 60.8299 142.936 60.8299C142.721 60.8299 142.636 60.6335 142.736 60.2863C143.111 58.9956 143.738 56.8211 143.738 56.8211L140.764 54.5729C140.322 54.2397 140.422 53.9451 140.991 53.9205L144.8 53.7486L146.152 50.3886C146.249 50.1396 146.382 50.0133 146.516 50.0133ZM146.516 49.9783C146.364 49.9783 146.219 50.1186 146.119 50.3746L144.774 53.7101L140.991 53.8819C140.701 53.896 140.512 53.9801 140.467 54.1169C140.419 54.2537 140.519 54.4256 140.745 54.5974L143.701 56.8316L142.706 60.2758C142.643 60.5002 142.65 60.6721 142.732 60.7703C142.78 60.8299 142.855 60.8615 142.944 60.8615C143.059 60.8615 143.196 60.8124 143.352 60.7142C144.474 60.0233 146.312 58.8904 146.523 58.7571L149.695 60.7142C149.851 60.8124 149.988 60.8615 150.103 60.8615C150.192 60.8615 150.267 60.8299 150.315 60.7703C150.396 60.6686 150.404 60.4967 150.341 60.2758L149.346 56.8316L152.301 54.5974C152.528 54.4256 152.628 54.2537 152.58 54.1169C152.532 53.9801 152.346 53.896 152.056 53.8819L148.272 53.7101L146.928 50.3746C146.809 50.1186 146.668 49.9783 146.516 49.9783Z" fill="white"/>
<path fill-rule="evenodd" clip-rule="evenodd" d="M152.041 53.9201L148.231 53.7482L146.88 50.3882C146.679 49.8901 146.352 49.8901 146.152 50.3882L144.8 53.7482L140.99 53.9201C140.422 53.9446 140.322 54.2392 140.764 54.5724L143.738 56.8206C143.738 56.8206 143.111 58.9952 142.735 60.2859C142.587 60.8014 142.851 60.9803 143.326 60.6892C144.514 59.9562 146.516 58.7216 146.516 58.7216L149.293 56.8206L152.268 54.5724C152.71 54.2357 152.606 53.9446 152.041 53.9201Z" fill="white"/>
<path opacity="0.5" fill-rule="evenodd" clip-rule="evenodd" d="M152.041 53.9201L148.231 53.7482L146.88 50.3882C146.679 49.8901 146.352 49.8901 146.152 50.3882L144.8 53.7482L140.99 53.9201C140.422 53.9446 140.322 54.2392 140.764 54.5724L143.738 56.8206C143.738 56.8206 143.111 58.9952 142.735 60.2859C142.587 60.8014 142.851 60.9803 143.326 60.6892C144.514 59.9562 146.516 58.7216 146.516 58.7216L149.293 56.8206L152.268 54.5724C152.71 54.2357 152.606 53.9446 152.041 53.9201Z" fill="white"/>
<path fill-rule="evenodd" clip-rule="evenodd" d="M170.976 53.9201L167.166 53.7482L165.814 50.3882C165.614 49.8901 165.287 49.8901 165.086 50.3882L163.735 53.7482L159.925 53.9201C159.357 53.9446 159.256 54.2392 159.698 54.5724L162.673 56.8206C162.673 56.8206 162.045 58.9952 161.67 60.2859C161.521 60.8014 161.785 60.9803 162.26 60.6892C163.449 59.9562 165.45 58.7216 165.45 58.7216L168.64 60.6892C169.115 60.9803 169.379 60.8014 169.23 60.2859L168.228 56.8206L171.202 54.5724C171.644 54.2357 171.54 53.9446 170.976 53.9201Z" fill="white"/>
<path d="M165.451 50.0133C165.584 50.0133 165.714 50.1396 165.814 50.3886L167.166 53.7486L170.976 53.9205C171.544 53.9451 171.644 54.2397 171.203 54.5729L168.228 56.8211L169.231 60.2863C169.331 60.6335 169.246 60.8299 169.03 60.8299C168.926 60.8299 168.796 60.7843 168.64 60.6896L165.451 58.722C165.451 58.722 163.449 59.9566 162.261 60.6896C162.109 60.7843 161.975 60.8299 161.871 60.8299C161.656 60.8299 161.57 60.6335 161.67 60.2863C162.045 58.9956 162.673 56.8211 162.673 56.8211L159.699 54.5729C159.257 54.2397 159.357 53.9451 159.925 53.9205L163.735 53.7486L165.087 50.3886C165.183 50.1396 165.317 50.0133 165.451 50.0133ZM165.451 49.9783C165.298 49.9783 165.154 50.1186 165.053 50.3746L163.709 53.7101L159.925 53.8819C159.635 53.896 159.446 53.9801 159.402 54.1169C159.353 54.2537 159.453 54.4256 159.68 54.5974L162.636 56.8316L161.641 60.2758C161.578 60.5002 161.585 60.6721 161.667 60.7703C161.715 60.8299 161.789 60.8615 161.878 60.8615C161.993 60.8615 162.131 60.8124 162.287 60.7142C163.408 60.0233 165.246 58.8904 165.458 58.7571L168.629 60.7142C168.785 60.8124 168.923 60.8615 169.038 60.8615C169.127 60.8615 169.201 60.8299 169.249 60.7703C169.331 60.6686 169.338 60.4967 169.275 60.2758L168.28 56.8316L171.236 54.5974C171.463 54.4256 171.563 54.2537 171.514 54.1169C171.466 53.9801 171.281 53.896 170.991 53.8819L167.207 53.7101L165.863 50.3746C165.744 50.1186 165.603 49.9783 165.451 49.9783Z" fill="white"/>
<path fill-rule="evenodd" clip-rule="evenodd" d="M170.976 53.9201L167.166 53.7482L165.814 50.3882C165.614 49.8901 165.287 49.8901 165.086 50.3882L163.735 53.7482L159.925 53.9201C159.357 53.9446 159.256 54.2392 159.698 54.5724L162.673 56.8206C162.673 56.8206 162.045 58.9952 161.67 60.2859C161.521 60.8014 161.785 60.9803 162.26 60.6892C163.449 59.9562 165.45 58.7216 165.45 58.7216L168.228 56.8206L171.202 54.5724C171.644 54.2357 171.54 53.9446 170.976 53.9201Z" fill="white"/>
<path opacity="0.5" fill-rule="evenodd" clip-rule="evenodd" d="M170.976 53.9201L167.166 53.7482L165.814 50.3882C165.614 49.8901 165.287 49.8901 165.086 50.3882L163.735 53.7482L159.925 53.9201C159.357 53.9446 159.256 54.2392 159.698 54.5724L162.673 56.8206C162.673 56.8206 162.045 58.9952 161.67 60.2859C161.521 60.8014 161.785 60.9803 162.26 60.6892C163.449 59.9562 165.45 58.7216 165.45 58.7216L168.228 56.8206L171.202 54.5724C171.644 54.2357 171.54 53.9446 170.976 53.9201Z" fill="white"/>
<path fill-rule="evenodd" clip-rule="evenodd" d="M116.166 54.2509L112.356 54.079L111.005 50.719C110.804 50.2209 110.477 50.2209 110.277 50.719L108.925 54.079L105.115 54.2509C104.547 54.2754 104.447 54.57 104.889 54.9032L107.863 57.1514C107.863 57.1514 107.236 59.326 106.86 60.6167C106.712 61.1322 106.976 61.3111 107.451 61.02C108.639 60.287 110.641 59.0524 110.641 59.0524L113.83 61.02C114.306 61.3111 114.569 61.1322 114.421 60.6167L113.418 57.1514L116.393 54.9032C116.835 54.5665 116.731 54.2754 116.166 54.2509Z" fill="white"/>
<path d="M110.641 50.3442C110.775 50.3442 110.905 50.4704 111.005 50.7194L112.357 54.0795L116.166 54.2513C116.735 54.2759 116.835 54.5705 116.393 54.9037L113.419 57.1519L114.421 60.6171C114.521 60.9643 114.436 61.1607 114.221 61.1607C114.117 61.1607 113.987 61.1152 113.831 61.0205L110.641 59.0528C110.641 59.0528 108.64 60.2874 107.451 61.0205C107.299 61.1152 107.165 61.1607 107.061 61.1607C106.846 61.1607 106.761 60.9643 106.861 60.6171C107.236 59.3264 107.863 57.1519 107.863 57.1519L104.889 54.9037C104.447 54.5705 104.547 54.2759 105.116 54.2513L108.925 54.0795L110.277 50.7194C110.374 50.4704 110.507 50.3442 110.641 50.3442ZM110.641 50.3091C110.489 50.3091 110.344 50.4494 110.244 50.7054L108.899 54.0409L105.116 54.2127C104.826 54.2268 104.637 54.3109 104.592 54.4477C104.544 54.5845 104.644 54.7564 104.87 54.9282L107.826 57.1624L106.831 60.6066C106.768 60.8311 106.775 61.0029 106.857 61.1011C106.905 61.1608 106.98 61.1923 107.069 61.1923C107.184 61.1923 107.321 61.1432 107.477 61.045C108.599 60.3541 110.437 59.2212 110.648 59.0879L113.82 61.045C113.976 61.1432 114.113 61.1923 114.228 61.1923C114.317 61.1923 114.392 61.1608 114.44 61.1011C114.521 60.9994 114.529 60.8276 114.466 60.6066L113.471 57.1624L116.426 54.9282C116.653 54.7564 116.753 54.5845 116.705 54.4477C116.657 54.3109 116.471 54.2268 116.181 54.2127L112.397 54.0409L111.053 50.7054C110.934 50.4494 110.793 50.3091 110.641 50.3091Z" fill="white"/>
<path fill-rule="evenodd" clip-rule="evenodd" d="M116.166 54.2509L112.356 54.079L111.005 50.719C110.804 50.2209 110.477 50.2209 110.277 50.719L108.925 54.079L105.115 54.2509C104.547 54.2754 104.447 54.57 104.889 54.9032L107.863 57.1514C107.863 57.1514 107.236 59.326 106.86 60.6167C106.712 61.1322 106.976 61.3111 107.451 61.02C108.639 60.287 110.641 59.0524 110.641 59.0524L113.418 57.1514L116.393 54.9032C116.835 54.5665 116.731 54.2754 116.166 54.2509Z" fill="white"/>
<path opacity="0.5" fill-rule="evenodd" clip-rule="evenodd" d="M116.166 54.2509L112.356 54.079L111.005 50.719C110.804 50.2209 110.477 50.2209 110.277 50.719L108.925 54.079L105.115 54.2509C104.547 54.2754 104.447 54.57 104.889 54.9032L107.863 57.1514C107.863 57.1514 107.236 59.326 106.86 60.6167C106.712 61.1322 106.976 61.3111 107.451 61.02C108.639 60.287 110.641 59.0524 110.641 59.0524L113.418 57.1514L116.393 54.9032C116.835 54.5665 116.731 54.2754 116.166 54.2509Z" fill="white"/>
<path fill-rule="evenodd" clip-rule="evenodd" d="M97.2326 54.2509L93.4226 54.079L92.071 50.719C91.8705 50.2209 91.5437 50.2209 91.3432 50.719L89.9915 54.079L86.1816 54.2509C85.6134 54.2754 85.5132 54.57 85.9551 54.9032L88.9295 57.1514C88.9295 57.1514 88.3019 59.326 87.9269 60.6167C87.7783 61.1322 88.042 61.3111 88.5173 61.02C89.7056 60.287 91.7071 59.0524 91.7071 59.0524L94.8969 61.02C95.3722 61.3111 95.6358 61.1322 95.4873 60.6167L94.4847 57.1514L97.4591 54.9032C97.901 54.5665 97.797 54.2754 97.2326 54.2509Z" fill="white"/>
<path d="M91.7074 50.3442C91.8411 50.3442 91.9711 50.4704 92.0713 50.7194L93.423 54.0795L97.2329 54.2513C97.801 54.2759 97.9013 54.5705 97.4594 54.9037L94.485 57.1519L95.4876 60.6171C95.5879 60.9643 95.5025 61.1607 95.2871 61.1607C95.1831 61.1607 95.0532 61.1152 94.8972 61.0205L91.7074 59.0528C91.7074 59.0528 89.7059 60.2874 88.5176 61.0205C88.3654 61.1152 88.2317 61.1607 88.1277 61.1607C87.9124 61.1607 87.8269 60.9643 87.9272 60.6171C88.3023 59.3264 88.9298 57.1519 88.9298 57.1519L85.9554 54.9037C85.5135 54.5705 85.6138 54.2759 86.1819 54.2513L89.9918 54.0795L91.3435 50.7194C91.4401 50.4704 91.5737 50.3442 91.7074 50.3442ZM91.7074 50.3091C91.5552 50.3091 91.4103 50.4494 91.3101 50.7054L89.9658 54.0409L86.1819 54.2127C85.8923 54.2268 85.7029 54.3109 85.6583 54.4477C85.6101 54.5845 85.7103 54.7564 85.9369 54.9282L88.8927 57.1624L87.8975 60.6066C87.8344 60.8311 87.8418 61.0029 87.9235 61.1011C87.9718 61.1608 88.046 61.1923 88.1352 61.1923C88.2503 61.1923 88.3877 61.1432 88.5436 61.045C89.6651 60.3541 91.5032 59.2212 91.7148 59.0879L94.886 61.045C95.042 61.1432 95.1794 61.1923 95.2945 61.1923C95.3836 61.1923 95.4579 61.1608 95.5062 61.1011C95.5879 60.9994 95.5953 60.8276 95.5322 60.6066L94.537 57.1624L97.4928 54.9282C97.7193 54.7564 97.8196 54.5845 97.7713 54.4477C97.7231 54.3109 97.5374 54.2268 97.2477 54.2127L93.4638 54.0409L92.1196 50.7054C92.0008 50.4494 91.8597 50.3091 91.7074 50.3091Z" fill="white"/>
<path fill-rule="evenodd" clip-rule="evenodd" d="M97.2326 54.2509L93.4226 54.079L92.071 50.719C91.8705 50.2209 91.5437 50.2209 91.3432 50.719L89.9915 54.079L86.1816 54.2509C85.6134 54.2754 85.5132 54.57 85.9551 54.9032L88.9295 57.1514C88.9295 57.1514 88.3019 59.326 87.9269 60.6167C87.7783 61.1322 88.042 61.3111 88.5173 61.02C89.7056 60.287 91.7071 59.0524 91.7071 59.0524L94.4847 57.1514L97.4591 54.9032C97.901 54.5665 97.797 54.2754 97.2326 54.2509Z" fill="white"/>
<path opacity="0.5" fill-rule="evenodd" clip-rule="evenodd" d="M97.2326 54.2509L93.4226 54.079L92.071 50.719C91.8705 50.2209 91.5437 50.2209 91.3432 50.719L89.9915 54.079L86.1816 54.2509C85.6134 54.2754 85.5132 54.57 85.9551 54.9032L88.9295 57.1514C88.9295 57.1514 88.3019 59.326 87.9269 60.6167C87.7783 61.1322 88.042 61.3111 88.5173 61.02C89.7056 60.287 91.7071 59.0524 91.7071 59.0524L94.4847 57.1514L97.4591 54.9032C97.901 54.5665 97.797 54.2754 97.2326 54.2509Z" fill="white"/>
<path d="M19.4525 0.445068L29.1332 29.6646H0.941406L6.94962 12.4717H12.9875L9.445 24.3089H20.923L12.5494 0.445068H19.4525Z" fill="white"/>
<path d="M109.074 0.445312L118.755 29.6648H90.5596L96.5678 12.4719H102.606L99.0632 24.3091H110.541L102.171 0.445312H109.074Z" fill="white"/>
<path d="M249.361 0.445312L259.042 29.6648H230.847L236.855 12.4719H242.893L239.35 24.3091H250.828L242.455 0.445312H249.361Z" fill="white"/>
<path d="M33.2959 0.445336L46.846 0.434814C48.892 0.434814 50.3291 0.648761 51.8664 1.003C53.2626 1.33269 53.8382 1.72551 54.9188 2.73913C55.7432 3.49671 56.2482 4.17011 56.6344 5.3135C57.0243 6.45689 57.2322 7.85631 57.2322 9.4802V29.6613H50.3514V9.53632C50.3514 8.53673 49.7832 7.41439 49.3896 6.95493C48.8994 6.41129 47.5663 5.82206 46.0624 5.82206H40.1508V29.6613H33.2959V0.445336Z" fill="white"/>
<path d="M62.4383 0.445336L75.9846 0.434814C78.0307 0.434814 79.4677 0.648761 81.0051 1.003C82.4013 1.33269 82.9769 1.72551 84.0575 2.73913C84.8818 3.49671 85.3868 4.17011 85.773 5.3135C86.1629 6.45689 86.3709 7.85631 86.3709 9.4802V29.6613H79.49V9.53632C79.49 8.53673 78.9219 7.41439 78.5283 6.95493C78.0381 6.41129 76.705 5.82206 75.2011 5.82206H69.2894V29.6613H62.4346V0.445336H62.4383Z" fill="white"/>
<path d="M202.547 0.455834L216.093 0.445312C218.139 0.445312 219.576 0.659259 221.113 1.0135C222.51 1.34319 223.085 1.73601 224.166 2.74962C224.99 3.50721 225.495 4.18061 225.881 5.324C226.271 6.46739 226.479 7.86681 226.479 9.4907V29.6718H219.598V9.54682C219.598 8.54723 219.03 7.42489 218.637 6.96543C218.147 6.42179 216.813 5.83256 215.309 5.83256H209.398V29.6718H202.543V0.455834H202.547Z" fill="white"/>
<path d="M122.309 0.445336L131.919 0.434814C134.266 0.434814 136.182 0.550556 137.608 0.96442C139.034 1.37828 140.193 2.06923 141.255 3.06881C142.127 3.89654 142.762 4.97329 143.212 6.11668C143.657 7.24604 143.78 8.34383 143.78 9.5293C143.78 10.7148 143.472 11.6968 142.996 12.7806C142.521 13.8679 141.834 14.6816 140.947 15.5233C139.87 16.5229 138.848 17.0104 137.527 17.3997C136.208 17.7855 134.456 17.8627 132.346 17.8627H129.19V29.6578H122.305V12.4719H132.41C133.234 12.4719 133.616 12.3211 134.077 12.251C134.537 12.1808 135.135 11.795 135.402 11.6091C135.967 11.0059 136.576 9.98526 136.576 9.25573C136.576 8.49815 135.997 7.00403 135.402 6.67434C134.808 6.34465 133.802 5.82206 132.406 5.82206H122.302V0.445336H122.309Z" fill="white"/>
<path d="M171.994 0.455811V29.6648H157.393C155.444 29.6648 153.828 29.4333 152.525 28.9809C151.637 28.6687 151.129 28.2759 150.352 27.592C149.591 26.9186 149.224 26.2592 148.778 25.3403C148.169 24.0882 148.039 22.3625 148.039 19.9635V0.455811H154.909V19.1814C154.909 20.1249 154.942 21.2507 155.068 21.6856C155.124 21.882 155.265 22.2959 155.484 22.6642C155.752 23.1131 156.212 23.4709 156.402 23.6182C156.673 23.8321 157.233 24.0496 157.675 24.1337C158.117 24.2179 158.901 24.3126 159.662 24.3126H165.124V0.455811H171.994Z" fill="white"/>
<path d="M176.747 0.466356L186.699 0.445312C188.682 0.445312 190.613 0.627693 192.046 0.967904C192.997 1.19588 193.932 1.70444 194.701 2.22002C195.507 2.76015 195.964 3.25819 196.491 3.95614C197.018 4.6541 197.356 5.28191 197.698 6.15523C198.039 7.02856 198.251 8.2947 198.251 9.2522C198.251 11.0935 197.575 12.4824 197.248 13.1909C196.71 14.1905 195.949 15.0463 195.704 15.2497C195.214 15.6601 194.23 16.4738 193.68 16.7579C193.776 16.814 194.066 16.9929 194.326 17.1577C194.527 17.2875 194.794 17.5435 194.965 17.7119C195.396 18.1327 195.336 18.1222 195.782 18.7079C195.863 18.8167 196.84 20.3003 196.84 22.096L196.818 29.6683H189.963V22.6432C189.892 21.2788 189.417 20.2406 189.354 20.1705C189.28 20.0828 189.068 19.2831 187.687 18.5536C187.516 18.4624 185.897 17.8206 184.649 17.8627L176.747 17.8732V12.4824L186.769 12.4719C187.215 12.4719 188.013 12.4053 188.667 12.2159C189.265 12.0405 189.722 11.7073 189.892 11.5811C190.249 11.3145 190.49 10.9462 190.62 10.7253C191.058 10.0799 191.088 9.11191 190.999 8.56827C190.817 7.49503 190.397 7.04259 189.892 6.67432C189.239 6.19732 188.158 5.90622 186.769 5.83607L176.747 5.83256V0.466356Z" fill="white"/>
<path d="M56.8276 43.8829C56.8424 43.7181 56.9093 43.6549 57.0838 43.6549H57.8079C57.9676 43.6549 58.0493 43.7181 58.0344 43.8829C58.0344 43.9846 58.0196 44.2898 57.9936 44.5563C57.8599 45.8996 57.6037 45.9382 56.5825 45.9908C55.8324 46.0154 55.5873 46.0154 54.6478 45.9908C53.6155 45.9417 53.3741 45.9031 53.2368 44.5563C53.1142 43.2867 53.1031 40.7403 53.2368 39.3058C53.3704 37.9625 53.6267 37.924 54.6478 37.8854C55.3608 37.8468 55.669 37.8468 56.5825 37.8854C57.6148 37.924 57.8562 37.9871 57.9936 39.3058L58.0456 40.0038C58.0604 40.1687 57.9787 40.2318 57.819 40.2318H57.0801C56.9056 40.2318 56.8387 40.1687 56.8239 40.0038C56.8239 39.9266 56.809 39.6496 56.783 39.4076C56.757 38.9621 56.7013 38.913 56.5157 38.913C55.7099 38.8885 55.4425 38.8885 54.6887 38.913C54.529 38.913 54.4733 38.9902 54.4473 39.3935C54.3248 40.8 54.3136 43.0832 54.4473 44.4546C54.4733 44.9 54.529 44.9491 54.7035 44.9632C55.5502 45.0017 55.7358 45.0017 56.5157 44.9632C56.705 44.9491 56.757 44.9141 56.783 44.4686L56.8276 43.8829Z" fill="white"/>
<path d="M67.7378 37.8683C68.7701 37.9174 69.0114 37.9559 69.1488 39.3028C69.2714 40.5724 69.2825 43.1187 69.1488 44.5532C69.0152 45.8965 68.7589 45.9351 67.7378 45.9737C67.0248 46.0123 66.7166 46.0123 65.8031 45.9737C64.7708 45.9351 64.5294 45.872 64.392 44.5532C64.2695 43.2976 64.2583 40.7232 64.392 39.3028C64.5257 37.9595 64.7819 37.9209 65.8031 37.8683C66.5569 37.8437 66.7983 37.8437 67.7378 37.8683ZM66.8391 44.9706C67.1214 44.9706 67.3479 44.9566 67.6969 44.946C67.8566 44.946 67.9123 44.8689 67.9383 44.4655C68.0608 43.0591 68.072 40.7758 67.9383 39.4045C67.9123 38.959 67.8566 38.9099 67.6821 38.8959C67.1993 38.8819 66.9691 38.8819 66.7017 38.8819C66.4344 38.8819 66.245 38.8819 65.8699 38.8959C65.6806 38.9099 65.6286 38.945 65.6026 39.3904C65.48 40.7864 65.4689 43.0942 65.6026 44.4515C65.6286 44.8969 65.6843 44.946 65.8699 44.946C66.3156 44.9601 66.5829 44.9706 66.8391 44.9706Z" fill="white"/>
<path d="M79.3413 38.1491C79.3413 37.9843 79.423 37.9211 79.5827 37.9211H80.3068C80.4813 37.9211 80.5482 37.9843 80.5482 38.1491V41.916C80.5482 42.8805 80.5222 43.8415 80.4553 44.5395C80.3216 45.8828 80.0654 45.9213 79.0442 45.974C78.2941 45.9985 78.0491 45.9985 77.1096 45.974C76.0773 45.9249 75.8359 45.8863 75.6985 44.5395C75.6317 43.9046 75.5908 42.9156 75.5908 41.916V38.1491C75.5908 37.9843 75.6725 37.9211 75.8322 37.9211H76.5563C76.7308 37.9211 76.7977 37.9843 76.7977 38.1491V41.916C76.7977 42.8419 76.8237 43.7538 76.9054 44.4378C76.9313 44.8832 76.987 44.9323 77.1616 44.9463C77.6443 44.9603 77.8745 44.9603 78.1419 44.9603C78.4093 44.9603 78.5986 44.9603 78.9737 44.9463C79.1631 44.9323 79.2151 44.8972 79.2411 44.4518C79.3079 43.7538 79.3339 42.8419 79.3339 41.916V38.1491H79.3413Z" fill="white"/>
<path d="M91.039 45.9423C90.8645 45.9423 90.7716 45.8932 90.7048 45.7389L89.5091 43.2908C89.4274 43.1505 89.3346 43.0874 89.1749 43.0874H88.2874C88.2057 43.0874 88.1648 43.1259 88.1648 43.2031V45.7143C88.1648 45.8792 88.098 45.9423 87.9235 45.9423H87.1994C87.0248 45.9423 86.958 45.8792 86.958 45.7143V38.1806C86.958 38.0158 87.0248 37.9526 87.1994 37.9526H90.3409C91.1987 37.9772 91.6443 38.0158 91.7891 39.3731C91.8708 40.1096 91.8819 40.769 91.7891 41.6669C91.6665 42.9365 91.3323 42.8839 90.8236 43.0347C90.7159 43.1224 90.7419 43.1505 90.7716 43.2768L91.9785 45.7354C92.0453 45.8862 92.0044 45.9388 91.8448 45.9388H91.039V45.9423ZM90.274 42.0632C90.4226 42.0632 90.5154 42.0492 90.5711 41.6318C90.7196 40.541 90.6379 39.9588 90.5562 39.4257C90.5154 39.096 90.4746 38.9803 90.274 38.9803H88.2874C88.2205 38.9803 88.1648 39.0048 88.1648 39.0574V41.9861C88.1648 42.0246 88.2168 42.0632 88.2874 42.0632H90.274Z" fill="white"/>
<path d="M101.908 43.8519C101.923 43.687 101.989 43.6239 102.164 43.6239H102.888C103.048 43.6239 103.129 43.687 103.115 43.8519C103.115 43.9536 103.1 44.2587 103.074 44.5253C102.94 45.8686 102.684 45.9072 101.663 45.9598C100.912 45.9843 100.667 45.9843 99.7279 45.9598C98.6956 45.9107 98.4542 45.8721 98.3168 44.5253C98.1943 43.2556 98.1832 40.7093 98.3168 39.2748C98.4505 37.9315 98.7067 37.893 99.7279 37.8544C100.441 37.8158 100.749 37.8158 101.663 37.8544C102.695 37.893 102.936 37.9561 103.074 39.2748L103.126 39.9728C103.14 40.1376 103.059 40.2008 102.899 40.2008H102.16C101.986 40.2008 101.919 40.1376 101.904 39.9728C101.904 39.8956 101.889 39.6186 101.863 39.3766C101.837 38.9311 101.781 38.882 101.596 38.882C100.79 38.8575 100.523 38.8575 99.7688 38.882C99.6091 38.882 99.5534 38.9592 99.5274 39.3625C99.4048 40.769 99.3937 43.0522 99.5274 44.4236C99.5534 44.869 99.6091 44.9181 99.7836 44.9321C100.63 44.9707 100.816 44.9707 101.596 44.9321C101.785 44.9181 101.837 44.883 101.863 44.4376L101.908 43.8519Z" fill="white"/>
<path d="M113.516 45.9213C113.341 45.9213 113.275 45.8582 113.275 45.6933V42.5613C113.275 42.4736 113.234 42.4456 113.152 42.4456H110.735C110.653 42.4456 110.612 42.4701 110.612 42.5613V45.6933C110.612 45.8582 110.545 45.9213 110.371 45.9213H109.647C109.472 45.9213 109.405 45.8582 109.405 45.6933V38.1596C109.405 37.9948 109.472 37.9316 109.647 37.9316H110.371C110.545 37.9316 110.612 37.9948 110.612 38.1596V41.3057C110.612 41.3828 110.653 41.4214 110.735 41.4214H113.152C113.234 41.4214 113.275 41.3828 113.275 41.3057V38.1596C113.275 37.9948 113.341 37.9316 113.516 37.9316H114.24C114.415 37.9316 114.481 37.9948 114.481 38.1596V45.6933C114.481 45.8582 114.415 45.9213 114.24 45.9213H113.516Z" fill="white"/>
<path d="M121.184 45.8652C121.009 45.8652 120.942 45.802 120.942 45.6372V38.1035C120.942 37.9386 121.009 37.8755 121.184 37.8755H125.049C125.224 37.8755 125.291 37.9386 125.291 38.1035V38.6752C125.291 38.84 125.224 38.9031 125.049 38.9031H122.272C122.19 38.9031 122.149 38.9417 122.149 39.0189V41.2495C122.149 41.3267 122.19 41.3653 122.272 41.3653H124.448C124.622 41.3653 124.689 41.4284 124.689 41.5932V42.1649C124.689 42.3158 124.622 42.3929 124.448 42.3929H122.272C122.19 42.3929 122.149 42.4175 122.149 42.5087V44.7288C122.149 44.806 122.19 44.8445 122.272 44.8445H125.049C125.224 44.8445 125.291 44.9077 125.291 45.0725V45.6442C125.291 45.8091 125.224 45.8722 125.049 45.8722H121.184V45.8652Z" fill="white"/>
<path d="M143.672 45.8652C143.498 45.8652 143.431 45.802 143.431 45.6372V38.1035C143.431 37.9386 143.498 37.8755 143.672 37.8755H147.538C147.712 37.8755 147.779 37.9386 147.779 38.1035V38.6752C147.779 38.84 147.712 38.9031 147.538 38.9031H144.76C144.678 38.9031 144.638 38.9417 144.638 39.0189V41.2495C144.638 41.3267 144.678 41.3653 144.76 41.3653H146.936C147.111 41.3653 147.177 41.4284 147.177 41.5932V42.1649C147.177 42.3158 147.111 42.3929 146.936 42.3929H144.76C144.678 42.3929 144.638 42.4175 144.638 42.5087V44.7288C144.638 44.806 144.678 44.8445 144.76 44.8445H147.538C147.712 44.8445 147.779 44.9077 147.779 45.0725V45.6442C147.779 45.8091 147.712 45.8722 147.538 45.8722H143.672V45.8652Z" fill="white"/>
<path d="M133.98 45.9283C133.805 45.9283 133.713 45.8652 133.672 45.7144L131.429 38.1561C131.388 38.0053 131.444 37.9421 131.603 37.9421H132.394C132.569 37.9421 132.662 38.0053 132.691 38.1561L133.791 42.0983C134.047 43.0243 134.206 43.8239 134.273 44.5464C134.314 44.7113 134.34 44.7113 134.381 44.5464C134.448 43.8239 134.608 43.0243 134.864 42.0983L135.952 38.1561C135.978 38.0053 136.074 37.9421 136.249 37.9421H137.04C137.214 37.9421 137.266 38.0053 137.229 38.1561L134.986 45.7144C134.945 45.8652 134.853 45.9283 134.678 45.9283H133.98Z" fill="white"/>
<path d="M154.207 45.9177C154.033 45.9177 153.966 45.8545 153.966 45.6897V38.156C153.966 37.9911 154.033 37.928 154.207 37.928H154.931C155.106 37.928 155.173 37.9911 155.173 38.156V44.7743C155.173 44.8514 155.214 44.89 155.295 44.89H158.073C158.247 44.89 158.314 44.9531 158.314 45.118V45.6897C158.314 45.8545 158.247 45.9177 158.073 45.9177H154.207Z" fill="white"/>
<path d="M168.856 45.9142C168.697 45.9142 168.615 45.8511 168.615 45.6862V39.1942L167.891 39.3099C167.731 39.3345 167.649 39.2854 167.623 39.1205L167.557 38.6751C167.516 38.5102 167.583 38.4471 167.757 38.4085L169.584 37.8754C169.759 37.8509 169.825 37.9385 169.825 38.1034V45.6862C169.825 45.8511 169.759 45.9142 169.584 45.9142H168.856Z" fill="white"/>
<path d="M181.344 43.1822C181.37 43.4873 181.411 43.9924 181.344 44.5781C181.222 45.8092 180.98 45.9845 179.933 46.0126C179.692 46.0266 178.901 46.0371 177.998 45.9986C176.951 45.974 176.71 45.7951 176.587 44.5641C176.52 43.9818 176.561 43.4733 176.587 43.1681C176.695 42.1651 177.07 42.1019 177.809 41.9371C177.07 41.7582 176.669 41.7091 176.561 40.6955C176.52 40.2641 176.535 39.7064 176.576 39.2996C176.684 38.044 176.951 37.9037 177.987 37.8651C178.214 37.8511 179.02 37.816 179.948 37.8511C180.969 37.8896 181.251 38.0299 181.359 39.2855C181.4 39.7029 181.411 40.2501 181.374 40.6815C181.266 41.7196 180.835 41.7582 180.07 41.9511C180.821 42.1405 181.236 42.1545 181.344 43.1822ZM178.927 41.4952C179.369 41.3058 179.785 41.1269 179.907 41.0778C180.03 41.0392 180.108 41.0006 180.163 40.5833C180.215 40.1659 180.178 39.6328 180.148 39.3908C180.108 38.9453 180.067 38.9103 179.851 38.9103C179.625 38.8962 178.362 38.8857 178.024 38.9103C177.865 38.9103 177.809 38.9594 177.783 39.4048C177.757 39.6468 177.716 40.1799 177.768 40.5973C177.809 41.0147 177.902 41.0532 178.024 41.0918L178.927 41.4952ZM178.043 42.7753C177.92 42.8139 177.828 42.9016 177.787 43.2699C177.735 43.6872 177.772 44.2203 177.802 44.4624C177.828 44.9078 177.883 44.9569 178.058 44.9709C178.284 44.9849 179.562 44.9955 179.896 44.9709C180.056 44.9569 180.096 44.9218 180.137 44.4764C180.163 44.2344 180.204 43.7013 180.152 43.2839C180.1 42.9156 180.004 42.8525 179.896 42.7894C179.64 42.6245 179.372 42.4983 178.971 42.4071C178.578 42.4983 178.125 42.7368 178.043 42.7753Z" fill="white"/>
<path d="M188.771 43.652C188.945 43.652 189.027 43.7151 189.027 43.88C189.027 43.9291 189.053 44.1956 189.079 44.4517C189.12 44.9076 189.146 44.9322 189.335 44.9602C189.766 44.9988 190.839 44.9848 191.147 44.9602C191.348 44.9357 191.389 44.8725 191.415 44.4657C191.456 44.0203 191.456 43.0593 191.415 42.6138C191.389 42.1965 191.333 42.1333 191.147 42.1193C190.423 42.0807 190.301 42.0807 189.454 42.1193C189.146 42.1333 189.09 42.235 189.09 42.4735C189.09 42.6384 189.038 42.7015 188.864 42.7015H188.139C187.965 42.7015 187.898 42.6384 187.898 42.4735C187.872 41.4599 187.913 40.2288 187.991 39.3029L188.084 38.163C188.099 37.9982 188.165 37.9351 188.34 37.9351H192.302C192.477 37.9351 192.544 37.9982 192.544 38.163V38.7347C192.544 38.8996 192.477 38.9627 192.302 38.9627H189.294C189.213 38.9627 189.172 39.0013 189.161 39.0784L189.135 39.3941C189.109 39.9904 189.094 40.6638 189.094 41.5862C189.309 41.2425 189.565 41.1302 190.126 41.0916C190.219 41.0916 190.798 41.0671 191.214 41.0776C192.261 41.0916 192.518 41.3442 192.625 42.5226C192.677 43.0312 192.677 44.0448 192.625 44.5499C192.492 45.9212 192.235 45.9318 191.214 45.9703C191.132 45.9703 190.26 46.0335 189.279 45.9844C188.258 45.9458 188.006 45.8686 187.868 44.5499C187.842 44.2973 187.816 43.9922 187.816 43.8765C187.816 43.7116 187.883 43.6485 188.043 43.6485H188.771V43.652Z" fill="white"/>
<path d="M203.765 39.7061C203.887 39.5939 203.924 39.6044 203.924 39.7692C204.032 40.8214 204.032 43.2064 203.91 44.5497C203.776 45.893 203.52 45.9316 202.499 45.9842C201.748 46.0088 201.507 46.0088 200.564 45.9842C199.532 45.9351 199.286 45.8965 199.153 44.5497C199.03 43.2801 199.019 40.7337 199.153 39.2993C199.286 37.9559 199.543 37.9174 200.564 37.8788C201.277 37.8402 201.585 37.8402 202.499 37.8788C203.412 37.9174 203.679 38.0051 203.828 38.717C203.88 38.9836 203.813 38.959 203.694 39.0713L202.914 39.8183C202.792 39.9341 202.74 39.906 202.725 39.7412L202.699 39.3975C202.673 38.952 202.617 38.9029 202.432 38.9029C201.99 38.8889 201.719 38.8784 201.466 38.8784C201.184 38.8784 200.957 38.8924 200.608 38.9029C200.449 38.9029 200.393 38.9801 200.367 39.3834C200.244 40.7899 200.233 43.0731 200.367 44.4445C200.393 44.8864 200.449 44.939 200.623 44.9531C201.106 44.9671 201.336 44.9671 201.604 44.9671C201.871 44.9671 202.06 44.9671 202.435 44.9531C202.625 44.939 202.677 44.9039 202.703 44.4585C202.796 43.4309 202.892 41.8841 202.784 40.846C202.77 40.6952 202.825 40.5794 202.944 40.4637L203.765 39.7061Z" fill="white"/>
</g>
<defs>
<clipPath id="clip0_3067_8532">
<rect width="258.101" height="60.7609" fill="white" transform="translate(0.941406 0.434814)"/>
</clipPath>
</defs>
</svg>
