<svg xmlns="http://www.w3.org/2000/svg" width="800" height="800" viewBox="0 0 24 24" fill="none" xmlns:v="https://vecta.io/nano"><path d="M16.556 12.906l-.456.453s-1.083 1.076-4.038-1.862-1.872-4.015-1.872-4.015l.287-.285c.707-.703.773-1.83.157-2.654L9.373 2.859C8.61 1.84 7.136 1.705 6.261 2.575l-1.57 1.561c-.434.431-.724.99-.689 1.61.09 1.586.808 4.999 4.812 8.981 4.247 4.223 8.231 4.39 9.861 4.239.515-.048.964-.311 1.325-.67l1.421-1.412c.959-.953.688-2.588-.538-3.255l-1.91-1.039c-.806-.438-1.787-.309-2.417.317z" fill="currentColor"/></svg>