<svg xmlns="http://www.w3.org/2000/svg" width="800" height="800" viewBox="0 0 24 24" fill="currentColor" xmlns:v="https://vecta.io/nano"><path d="M16.822 5.134A4.75 4.75 0 0 1 15.648 2h-.919c.237 1.31 1.016 2.433 2.092 3.134zm-8.5 6.771a2.89 2.89 0 0 0-2.886 2.888c0 1.11.631 2.076 1.55 2.559a2.86 2.86 0 0 1-.547-1.686 2.89 2.89 0 0 1 2.886-2.888 2.88 2.88 0 0 1 .854.135v-3.51a6.42 6.42 0 0 0-.854-.06l-.149.005v2.693c-.274-.084-.557-.135-.854-.135zm11.103-5.229v2.67a8.17 8.17 0 0 1-4.779-1.537v6.989c0 3.487-2.835 6.329-6.324 6.329-1.346 0-2.598-.427-3.624-1.147A6.31 6.31 0 0 0 9.324 22c3.484 0 6.324-2.837 6.324-6.329V8.682a8.17 8.17 0 0 0 4.779 1.537V6.783a4.7 4.7 0 0 1-1.002-.107z"/><path d="M14.646 14.798V7.809a8.17 8.17 0 0 0 4.779 1.537v-2.67c-1.03-.218-1.935-.775-2.603-1.542A4.8 4.8 0 0 1 14.725 2H12.21l-.005 13.778a2.89 2.89 0 0 1-2.881 2.782c-.965 0-1.814-.478-2.343-1.203a2.9 2.9 0 0 1-1.55-2.559 2.89 2.89 0 0 1 2.886-2.888 2.88 2.88 0 0 1 .854.135V9.351C5.756 9.425 3 12.23 3 15.671a6.31 6.31 0 0 0 1.698 4.309c1.025.72 2.278 1.147 3.624 1.147a6.34 6.34 0 0 0 6.324-6.329z"/></svg>