<svg xmlns="http://www.w3.org/2000/svg" viewBox="0 0 488 459" xmlns:v="https://vecta.io/nano"><path d="M48.87 45.88c-.16.24 12.87 18.02 28.87 39.41l75.6 101.1 46.49 62.17-2.98 3.38-75.92 82.04-73.02 79.46c-.16.4 6.84.72 16.89.64l17.13-.08 5.63-6.19 64.74-69.97 61.12-66.19 2.01-2.33 16.09 21.55 54.13 72.47 38.12 50.83h58.31c48.5 0 58.23-.16 57.91-1.05-.24-.64-15.04-20.59-32.89-44.48L361.74 308l-46.81-62.57-33.94-46c0-.56 98.6-107.61 132.14-143.4l9.57-10.23h-17.61l-17.53.08-20.51 22.2-61.37 66.35-40.78 44.08-49.46-66.11-49.54-66.19-58.31-.4c-32.09-.25-58.56-.17-58.72.07zm138.18 71.26l65.39 87.51 83.32 111.39 53.32 71.42c.48.72-5.23.97-26.06.97H336.4l-52.76-70.62L99.7 71.7c-.48-.72 4.99-.97 25.98-.97h26.62l34.75 46.41z" fill="currentColor" /></svg>