<svg xmlns="http://www.w3.org/2000/svg" width="800" height="800" viewBox="0 0 24 24" fill="none" xmlns:v="https://vecta.io/nano"><path fill-rule="evenodd" d="M20.595 4.46c.947.254 1.692.998 1.945 1.945.458 1.715.46 5.295.46 5.295s0 3.58-.46 5.295c-.253.947-.998 1.692-1.945 1.945-1.715.46-8.595.46-8.595.46s-6.88 0-8.595-.46c-.947-.253-1.691-.998-1.945-1.945C1 15.281 1 11.7 1 11.7s0-3.58.46-5.295c.254-.947.998-1.691 1.945-1.945C5.12 4 12 4 12 4s6.88 0 8.595.46zm-5.081 7.241L9.798 15V8.401l5.716 3.3z" fill="currentColor"/></svg>